<svg xmlns="http://www.w3.org/2000/svg" xmlns:xlink="http://www.w3.org/1999/xlink" xmlns:lucid="lucid" width="1720" height="1166.18"><g transform="translate(-40 -40.000000000000014)" lucid:page-tab-id="0_0"><path d="M320 60h409.1v860H320z" stroke="#000" stroke-width="2" fill="#d1bcd2" fill-opacity=".62"/><use xlink:href="#a" transform="matrix(1,0,0,1,325,65.00000000000001) translate(15.130864197531025 33.95555555555553)"/><use xlink:href="#b" transform="matrix(1,0,0,1,325,65.00000000000001) translate(137.5123456790124 33.95555555555553)"/><use xlink:href="#c" transform="matrix(1,0,0,1,325,65.00000000000001) translate(203.41913580246913 33.95555555555553)"/><use xlink:href="#d" transform="matrix(1,0,0,1,325,65.00000000000001) translate(125.72222222222229 84.88888888888883)"/><path d="M760 400h980v520H760z" stroke="#000" stroke-width="2" fill="#e5e5e5" fill-opacity=".74"/><use xlink:href="#e" transform="matrix(1,0,0,1,765,405) translate(423.6456790123468 33.955555555555485)"/><use xlink:href="#f" transform="matrix(1,0,0,1,765,405) translate(576.6814814814823 33.955555555555485)"/><use xlink:href="#g" transform="matrix(1,0,0,1,765,405) translate(677.9586419753093 33.955555555555485)"/><use xlink:href="#h" transform="matrix(1,0,0,1,765,405) translate(861.7666666666669 33.955555555555485)"/><use xlink:href="#i" transform="matrix(1,0,0,1,765,405) translate(687.2728395061735 84.88888888888872)"/><path d="M60 60h212.07v150.22c-35.4-25.1-57.47-25.1-70.83-25.1-21.2 0-49.4 25.1-70.62 25.1-13.15 0-35.42 0-70.62-25.1z" stroke="#000" stroke-width="2" fill="#f9d2de"/><path d="M71.78 73.25h212.07v150.22c-35.4-25.08-57.47-25.08-70.83-25.08-21.2 0-49.4 25.07-70.62 25.07-13.15 0-35.4 0-70.62-25.08z" stroke="#000" stroke-width="2" fill="#f9d2de"/><path d="M83.56 86.5h212.08v150.23c-35.42-25.1-57.48-25.1-70.84-25.1-21.2 0-49.4 25.1-70.62 25.1-13.14 0-35.4 0-70.62-25.1z" stroke="#000" stroke-width="2" fill="#f9d2de"/><use xlink:href="#j" transform="matrix(1,0,0,1,88.56363636363636,91.50909090909093) translate(3.841049382716079 31.111111111111114)"/><use xlink:href="#k" transform="matrix(1,0,0,1,88.56363636363636,91.50909090909093) translate(120.21018518518518 31.111111111111114)"/><use xlink:href="#l" transform="matrix(1,0,0,1,88.56363636363636,91.50909090909093) translate(25.389506172839532 63.37777777777777)"/><use xlink:href="#m" transform="matrix(1,0,0,1,88.56363636363636,91.50909090909093) translate(86.48703703703706 63.37777777777777)"/><use xlink:href="#n" transform="matrix(1,0,0,1,88.56363636363636,91.50909090909093) translate(48.50648148148149 95.64444444444443)"/><path d="M107.13 325.1H248.5l47.14 88.35-47.13 88.37H107.14L60 413.45z" stroke="#000" stroke-width="2" fill="#c7e8ac"/><use xlink:href="#o" transform="matrix(1,0,0,1,65,330.0909090909091) translate(27.506234567901252 73.6986111111111)"/><use xlink:href="#p" transform="matrix(1,0,0,1,65,330.0909090909091) translate(91.66611111111114 73.6986111111111)"/><use xlink:href="#q" transform="matrix(1,0,0,1,65,330.0909090909091) translate(18.18432098765434 105.96527777777776)"/><use xlink:href="#r" transform="matrix(1,0,0,1,65,330.0909090909091) translate(140.60345679012346 105.96527777777776)"/><path d="M177.82 231.6v74" stroke="#000" stroke-width="2" fill="none"/><path d="M178.82 231.63h-2v-.55l2-.94z"/><path d="M177.82 320.85l-4.64-14.26h9.27z" stroke="#000" stroke-width="2"/><path d="M406.73 117.05h235.63v592.8c-39.35-99-63.85-99-78.7-99-23.56 0-54.9 99-78.47 99-14.62 0-39.36 0-78.47-99z" stroke="#000" stroke-width="2" fill="#ffeca9"/><use xlink:href="#s" transform="matrix(1,0,0,1,411.7272727272727,122.05454545454563) translate(15.415740740740759 21.511111111111106)"/><use xlink:href="#t" transform="matrix(1,0,0,1,411.7272727272727,122.05454545454563) translate(62.994135802469145 21.511111111111106)"/><use xlink:href="#u" transform="matrix(1,0,0,1,411.7272727272727,122.05454545454563) translate(155.38734567901236 21.511111111111106)"/><use xlink:href="#v" transform="matrix(1,0,0,1,411.7272727272727,122.05454545454563) translate(8.170679012345687 53.777777777777764)"/><use xlink:href="#w" transform="matrix(1,0,0,1,411.7272727272727,122.05454545454563) translate(46.93549382716049 53.777777777777764)"/><use xlink:href="#x" transform="matrix(1,0,0,1,411.7272727272727,122.05454545454563) translate(112.66388888888889 53.777777777777764)"/><use xlink:href="#y" transform="matrix(1,0,0,1,411.7272727272727,122.05454545454563) translate(60.79074074074076 86.04444444444442)"/><use xlink:href="#z" transform="matrix(1,0,0,1,411.7272727272727,122.05454545454563) translate(112.9253086419753 86.04444444444442)"/><use xlink:href="#A" transform="matrix(1,0,0,1,411.7272727272727,122.05454545454563) translate(113 118.31111111111109)"/><use xlink:href="#B" transform="matrix(1,0,0,1,411.7272727272727,122.05454545454563) translate(6.378086419753103 150.57777777777773)"/><use xlink:href="#C" transform="matrix(1,0,0,1,411.7272727272727,122.05454545454563) translate(106.24043209876544 150.57777777777773)"/><use xlink:href="#D" transform="matrix(1,0,0,1,411.7272727272727,122.05454545454563) translate(35.39567901234571 182.84444444444438)"/><use xlink:href="#E" transform="matrix(1,0,0,1,411.7272727272727,122.05454545454563) translate(65.27222222222224 182.84444444444438)"/><use xlink:href="#F" transform="matrix(1,0,0,1,411.7272727272727,122.05454545454563) translate(102.61790123456791 182.84444444444438)"/><use xlink:href="#G" transform="matrix(1,0,0,1,411.7272727272727,122.05454545454563) translate(69.71635802469137 215.11111111111103)"/><use xlink:href="#H" transform="matrix(1,0,0,1,411.7272727272727,122.05454545454563) translate(38.4206790123457 247.37777777777768)"/><use xlink:href="#I" transform="matrix(1,0,0,1,411.7272727272727,122.05454545454563) translate(68.29722222222225 247.37777777777768)"/><use xlink:href="#J" transform="matrix(1,0,0,1,411.7272727272727,122.05454545454563) translate(10.747530864197543 279.6444444444444)"/><use xlink:href="#K" transform="matrix(1,0,0,1,411.7272727272727,122.05454545454563) translate(113.74691358024691 279.6444444444444)"/><use xlink:href="#L" transform="matrix(1,0,0,1,411.7272727272727,122.05454545454563) translate(185.3759259259259 279.6444444444444)"/><use xlink:href="#M" transform="matrix(1,0,0,1,411.7272727272727,122.05454545454563) translate(9.9632716049383 311.91111111111104)"/><use xlink:href="#N" transform="matrix(1,0,0,1,411.7272727272727,122.05454545454563) translate(69.71635802469137 311.91111111111104)"/><use xlink:href="#O" transform="matrix(1,0,0,1,411.7272727272727,122.05454545454563) translate(187.654012345679 311.91111111111104)"/><use xlink:href="#P" transform="matrix(1,0,0,1,411.7272727272727,122.05454545454563) translate(4.996296296296322 344.1777777777777)"/><use xlink:href="#Q" transform="matrix(1,0,0,1,411.7272727272727,122.05454545454563) translate(113.74691358024693 344.1777777777777)"/><use xlink:href="#R" transform="matrix(1,0,0,1,411.7272727272727,122.05454545454563) translate(47.3462962962963 376.44444444444434)"/><use xlink:href="#S" transform="matrix(1,0,0,1,411.7272727272727,122.05454545454563) translate(84.69197530864197 376.44444444444434)"/><use xlink:href="#T" transform="matrix(1,0,0,1,411.7272727272727,122.05454545454563) translate(135.4074074074074 376.44444444444434)"/><use xlink:href="#U" transform="matrix(1,0,0,1,411.7272727272727,122.05454545454563) translate(34.27530864197533 408.711111111111)"/><use xlink:href="#V" transform="matrix(1,0,0,1,411.7272727272727,122.05454545454563) translate(176.03950617283948 408.711111111111)"/><use xlink:href="#W" transform="matrix(1,0,0,1,411.7272727272727,122.05454545454563) translate(28.67345679012348 440.97777777777765)"/><use xlink:href="#X" transform="matrix(1,0,0,1,411.7272727272727,122.05454545454563) translate(101.7962962962963 440.97777777777765)"/><use xlink:href="#Y" transform="matrix(1,0,0,1,411.7272727272727,122.05454545454563) translate(74.98209876543211 473.2444444444443)"/><path d="M297.77 413.45h89.46" stroke="#000" stroke-width="2" fill="none"/><path d="M297.8 414.45h-1.56l.53-1-.53-1h1.56z"/><path d="M402.5 413.45l-14.27 4.64v-9.28z" stroke="#000" stroke-width="2"/><path d="M404.73 414.5h-39V814h21.5" stroke="#000" stroke-width="2" fill="none"/><path d="M405.73 415.5h-1.03v-2h1.03z"/><path d="M402.5 814l-14.27 4.64v-9.28z" stroke="#000" stroke-width="2"/><path d="M406.73 725.64h235.63v176.72c-39.35-29.5-63.85-29.5-78.7-29.5-23.56 0-54.9 29.5-78.47 29.5-14.62 0-39.36 0-78.47-29.5z" stroke="#000" stroke-width="2" fill="#ffeca9"/><g><use xlink:href="#Z" transform="matrix(1,0,0,1,411.7272727272727,730.6363636363637) translate(13.287037037037067 43.073611111111106)"/><use xlink:href="#aa" transform="matrix(1,0,0,1,411.7272727272727,730.6363636363637) translate(121.6641975308642 43.073611111111106)"/><use xlink:href="#ab" transform="matrix(1,0,0,1,411.7272727272727,730.6363636363637) translate(181.41728395061727 43.073611111111106)"/><use xlink:href="#w" transform="matrix(1,0,0,1,411.7272727272727,730.6363636363637) translate(9.253703703703707 75.34027777777777)"/><use xlink:href="#ac" transform="matrix(1,0,0,1,411.7272727272727,730.6363636363637) translate(74.9820987654321 75.34027777777777)"/><use xlink:href="#ad" transform="matrix(1,0,0,1,411.7272727272727,730.6363636363637) translate(169.0932098765432 75.34027777777777)"/><use xlink:href="#ae" transform="matrix(1,0,0,1,411.7272727272727,730.6363636363637) translate(7.797222222222246 107.60694444444442)"/><use xlink:href="#af" transform="matrix(1,0,0,1,411.7272727272727,730.6363636363637) translate(74.87006172839507 107.60694444444442)"/><use xlink:href="#ag" transform="matrix(1,0,0,1,411.7272727272727,730.6363636363637) translate(127.154012345679 107.60694444444442)"/></g><path d="M796.36 207.27H1032V384c-39.35-29.5-63.86-29.5-78.7-29.5-23.57 0-54.9 29.5-78.47 29.5-14.6 0-39.35 0-78.47-29.5z" stroke="#000" stroke-width="2" fill="#ffeca9"/><g><use xlink:href="#ah" transform="matrix(1,0,0,1,801.3636363636363,212.27272727272725) translate(16.05061728395063 60.323611111111106)"/><use xlink:href="#ai" transform="matrix(1,0,0,1,801.3636363636363,212.27272727272725) translate(114.34444444444445 60.323611111111106)"/><use xlink:href="#aj" transform="matrix(1,0,0,1,801.3636363636363,212.27272727272725) translate(180.07283950617284 60.323611111111106)"/><use xlink:href="#ak" transform="matrix(1,0,0,1,801.3636363636363,212.27272727272725) translate(80.9574074074074 92.59027777777776)"/></g><path d="M796.36 442.9H1032v176.74H796.36z" stroke="#000" stroke-width="2" fill="#c1e4f7"/><g><use xlink:href="#al" transform="matrix(1,0,0,1,801.3636363636363,447.9090909090909) translate(38.383333333333354 58.042361111111106)"/><use xlink:href="#am" transform="matrix(1,0,0,1,801.3636363636363,447.9090909090909) translate(135.33271604938273 58.042361111111106)"/><use xlink:href="#an" transform="matrix(1,0,0,1,801.3636363636363,447.9090909090909) translate(22.81018518518519 90.30902777777776)"/><use xlink:href="#ao" transform="matrix(1,0,0,1,801.3636363636363,447.9090909090909) translate(104.7466049382716 90.30902777777776)"/><use xlink:href="#ap" transform="matrix(1,0,0,1,801.3636363636363,447.9090909090909) translate(140.59845679012346 90.30902777777776)"/><use xlink:href="#aq" transform="matrix(1,0,0,1,801.3636363636363,447.9090909090909) translate(180.7824074074074 90.30902777777776)"/><use xlink:href="#aa" transform="matrix(1,0,0,1,801.3636363636363,447.9090909090909) translate(42.117901234567924 122.57569444444441)"/><use xlink:href="#ar" transform="matrix(1,0,0,1,801.3636363636363,447.9090909090909) translate(101.870987654321 122.57569444444441)"/></g><path d="M644.36 414.5h75v116.77h57.5" stroke="#000" stroke-width="2" fill="none"/><path d="M644.4 415.5h-1.04v-2h1.03z"/><path d="M792.13 531.27l-14.27 4.64v-9.26z" stroke="#000" stroke-width="2"/><path d="M644.36 814.3h75V531.28h57.5" stroke="#000" stroke-width="2" fill="none"/><path d="M644.4 815.3h-1.04v-2h1.03z"/><path d="M792.13 531.27l-14.27 4.64v-9.26z" stroke="#000" stroke-width="2"/><path d="M914.18 371.1v52.3" stroke="#000" stroke-width="2" fill="none"/><path d="M915.18 371.12h-2v-.52l2-1z"/><path d="M914.18 438.67l-4.63-14.26h9.27z" stroke="#000" stroke-width="2"/><path d="M140 994.73h235.64v176.72H140z" stroke="#000" stroke-width="2" fill="#c1e4f7"/><g><use xlink:href="#al" transform="matrix(1,0,0,1,144.99999999999994,999.7272727272726) translate(17.544444444444466 73.6986111111111)"/><use xlink:href="#as" transform="matrix(1,0,0,1,144.99999999999994,999.7272727272726) translate(114.49382716049382 73.6986111111111)"/><use xlink:href="#at" transform="matrix(1,0,0,1,144.99999999999994,999.7272727272726) translate(64.52530864197533 105.96527777777776)"/></g><path d="M540.58 980h164.95c13 0 23.56 46.16 23.56 103.1 0 56.93-10.56 103.08-23.57 103.08H540.58l-47.13-103.1z" stroke="#000" stroke-width="2" fill="#c1e4f7"/><g><use xlink:href="#au" transform="matrix(1,0,0,1,498.45454545454544,984.9999999999999) translate(18.580308641975346 70.7611111111111)"/><use xlink:href="#av" transform="matrix(1,0,0,1,498.45454545454544,984.9999999999999) translate(115.5296913580247 70.7611111111111)"/><use xlink:href="#aw" transform="matrix(1,0,0,1,498.45454545454544,984.9999999999999) translate(30.215802469135816 103.02777777777776)"/><use xlink:href="#ax" transform="matrix(1,0,0,1,498.45454545454544,984.9999999999999) translate(131.64666666666668 103.02777777777776)"/><use xlink:href="#ay" transform="matrix(1,0,0,1,498.45454545454544,984.9999999999999) translate(97.60376543209877 135.29444444444442)"/></g><path d="M377.64 1083.1h96.2" stroke="#000" stroke-width="2" fill="none"/><path d="M377.66 1084.1h-1.02v-2h1.02z"/><path d="M489.12 1083.1l-14.27 4.63v-9.27z" stroke="#000" stroke-width="2"/><path d="M1090.9 708h235.65l-117.82 176.73z" stroke="#000" stroke-width="2" fill="#c1e4f7"/><g><use xlink:href="#az" transform="matrix(1,0,0,1,1095.909090909091,713.0000000000001) translate(33.705617283950644 21.511111111111106)"/><use xlink:href="#aA" transform="matrix(1,0,0,1,1095.909090909091,713.0000000000001) translate(90.39635802469137 21.511111111111106)"/><use xlink:href="#af" transform="matrix(1,0,0,1,1095.909090909091,713.0000000000001) translate(64.53030864197532 53.777777777777764)"/><use xlink:href="#aB" transform="matrix(1,0,0,1,1095.909090909091,713.0000000000001) translate(116.81425925925926 53.777777777777764)"/><use xlink:href="#aC" transform="matrix(1,0,0,1,1095.909090909091,713.0000000000001) translate(86.86302469135802 86.04444444444442)"/></g><path d="M796.36 708H1032v176.73H796.36z" stroke="#000" stroke-width="2" fill="#c1e4f7"/><g><use xlink:href="#aD" transform="matrix(1,0,0,1,801.3636363636363,713.0000000000001) translate(6.228703703703715 42.386111111111106)"/><use xlink:href="#t" transform="matrix(1,0,0,1,801.3636363636363,713.0000000000001) translate(74.79537037037038 42.386111111111106)"/><use xlink:href="#aE" transform="matrix(1,0,0,1,801.3636363636363,713.0000000000001) translate(167.1885802469136 42.386111111111106)"/><use xlink:href="#aF" transform="matrix(1,0,0,1,801.3636363636363,713.0000000000001) translate(20.569444444444457 74.65277777777777)"/><use xlink:href="#aG" transform="matrix(1,0,0,1,801.3636363636363,713.0000000000001) translate(84.72932098765433 74.65277777777777)"/><use xlink:href="#aH" transform="matrix(1,0,0,1,801.3636363636363,713.0000000000001) translate(110.12438271604938 74.65277777777777)"/><use xlink:href="#O" transform="matrix(1,0,0,1,801.3636363636363,713.0000000000001) translate(177.04783950617283 74.65277777777777)"/><use xlink:href="#aI" transform="matrix(1,0,0,1,801.3636363636363,713.0000000000001) translate(19.7851851851852 106.91944444444442)"/><use xlink:href="#aJ" transform="matrix(1,0,0,1,801.3636363636363,713.0000000000001) translate(118.07901234567902 106.91944444444442)"/><use xlink:href="#aK" transform="matrix(1,0,0,1,801.3636363636363,713.0000000000001) translate(31.511728395061738 139.18611111111107)"/><use xlink:href="#aG" transform="matrix(1,0,0,1,801.3636363636363,713.0000000000001) translate(103.06604938271606 139.18611111111107)"/><use xlink:href="#aL" transform="matrix(1,0,0,1,801.3636363636363,713.0000000000001) translate(128.4611111111111 139.18611111111107)"/></g><path d="M914.18 621.64v66.86" stroke="#000" stroke-width="2" fill="none"/><path d="M915.18 621.66h-2v-1.02h2z"/><path d="M914.18 703.76l-4.63-14.26h9.27z" stroke="#000" stroke-width="2"/><path d="M1034 796.36h96.1" stroke="#000" stroke-width="2" fill="none"/><path d="M1034.03 797.36H1033v-2h1.03z"/><path d="M1145.38 796.36L1131.1 801v-9.27z" stroke="#000" stroke-width="2"/><path d="M1269.65 796.64h154.43" stroke="#000" stroke-width="2" fill="none"/><path d="M1269.68 797.64h-1.7l1.34-2h.36z"/><path d="M1439.34 796.64l-14.26 4.64V792z" stroke="#000" stroke-width="2"/><path d="M1360 690.36h334.55l-167.28 212z" stroke="#000" stroke-width="2" fill="#c1e4f7"/><g><use xlink:href="#aM" transform="matrix(1,0,0,1,1365,695.3636363636366) translate(75.19080246913583 21.511111111111106)"/><use xlink:href="#aN" transform="matrix(1,0,0,1,1365,695.3636363636366) translate(158.69574074074075 21.511111111111106)"/><use xlink:href="#aO" transform="matrix(1,0,0,1,1365,695.3636363636366) translate(52.32074074074075 53.777777777777764)"/><use xlink:href="#aG" transform="matrix(1,0,0,1,1365,695.3636363636366) translate(198.4917283950617 53.777777777777764)"/><use xlink:href="#aP" transform="matrix(1,0,0,1,1365,695.3636363636366) translate(223.88679012345676 53.777777777777764)"/><use xlink:href="#aQ" transform="matrix(1,0,0,1,1365,695.3636363636366) translate(85.85716049382718 86.04444444444442)"/><use xlink:href="#aR" transform="matrix(1,0,0,1,1365,695.3636363636366) translate(120.7151851851852 118.31111111111109)"/></g><path d="M1527.27 904.98v43.87H257.82v26.38" stroke="#000" stroke-width="2" fill="none"/><path d="M1527.27 903.98l1-1.27v2.3h-2v-2.3z"/><path d="M257.82 990.5l-4.64-14.27h9.27z" stroke="#000" stroke-width="2"/><defs><path d="M212-179c-10-28-35-45-73-45-59 0-87 40-87 99 0 60 29 101 89 101 43 0 62-24 78-52l27 14C228-24 195 4 139 4 59 4 22-46 18-125c-6-104 99-153 187-111 19 9 31 26 39 46" id="aS"/><path d="M24 0v-261h32V0H24" id="aT"/><path d="M100-194c63 0 86 42 84 106H49c0 40 14 67 53 68 26 1 43-12 49-29l28 8c-11 28-37 45-77 45C44 4 14-33 15-96c1-61 26-98 85-98zm52 81c6-60-76-77-97-28-3 7-6 17-6 28h103" id="aU"/><path d="M141-36C126-15 110 5 73 4 37 3 15-17 15-53c-1-64 63-63 125-63 3-35-9-54-41-54-24 1-41 7-42 31l-33-3c5-37 33-52 76-52 45 0 72 20 72 64v82c-1 20 7 32 28 27v20c-31 9-61-2-59-35zM48-53c0 20 12 33 32 33 41-3 63-29 60-74-43 2-92-5-92 41" id="aV"/><path d="M117-194c89-4 53 116 60 194h-32v-121c0-31-8-49-39-48C34-167 62-67 57 0H25l-1-190h30c1 10-1 24 2 32 11-22 29-35 61-36" id="aW"/><g id="a"><use transform="matrix(0.11790123456790114,0,0,0.11790123456790114,0,0)" xlink:href="#aS"/><use transform="matrix(0.11790123456790114,0,0,0.11790123456790114,30.536419753086395,0)" xlink:href="#aT"/><use transform="matrix(0.11790123456790114,0,0,0.11790123456790114,39.850617283950584,0)" xlink:href="#aU"/><use transform="matrix(0.11790123456790114,0,0,0.11790123456790114,63.43086419753081,0)" xlink:href="#aV"/><use transform="matrix(0.11790123456790114,0,0,0.11790123456790114,87.01111111111103,0)" xlink:href="#aW"/></g><path d="M232-93c-1 65-40 97-104 97C67 4 28-28 28-90v-158h33c8 89-33 224 67 224 102 0 64-133 71-224h33v155" id="aX"/><path d="M115-194c55 1 70 41 70 98S169 2 115 4C84 4 66-9 55-30l1 105H24l-1-265h31l2 30c10-21 28-34 59-34zm-8 174c40 0 45-34 45-75s-6-73-45-74c-42 0-51 32-51 76 0 43 10 73 51 73" id="aY"/><g id="b"><use transform="matrix(0.11790123456790114,0,0,0.11790123456790114,0,0)" xlink:href="#aX"/><use transform="matrix(0.11790123456790114,0,0,0.11790123456790114,30.536419753086395,0)" xlink:href="#aY"/></g><path d="M190 0L58-211 59 0H30v-248h39L202-35l-2-213h31V0h-41" id="aZ"/><path d="M100-194c62-1 85 37 85 99 1 63-27 99-86 99S16-35 15-95c0-66 28-99 85-99zM99-20c44 1 53-31 53-75 0-43-8-75-51-75s-53 32-53 75 10 74 51 75" id="ba"/><path d="M59-47c-2 24 18 29 38 22v24C64 9 27 4 27-40v-127H5v-23h24l9-43h21v43h35v23H59v120" id="bb"/><path d="M115-194c53 0 69 39 70 98 0 66-23 100-70 100C84 3 66-7 56-30L54 0H23l1-261h32v101c10-23 28-34 59-34zm-8 174c40 0 45-34 45-75 0-40-5-75-45-74-42 0-51 32-51 76 0 43 10 73 51 73" id="bc"/><path d="M143 0L79-87 56-68V0H24v-261h32v163l83-92h37l-77 82L181 0h-38" id="bd"/><g id="c"><use transform="matrix(0.11790123456790114,0,0,0.11790123456790114,0,0)" xlink:href="#aZ"/><use transform="matrix(0.11790123456790114,0,0,0.11790123456790114,30.536419753086395,0)" xlink:href="#ba"/><use transform="matrix(0.11790123456790114,0,0,0.11790123456790114,54.11666666666662,0)" xlink:href="#bb"/><use transform="matrix(0.11790123456790114,0,0,0.11790123456790114,65.90679012345673,0)" xlink:href="#aU"/><use transform="matrix(0.11790123456790114,0,0,0.11790123456790114,89.48703703703696,0)" xlink:href="#bc"/><use transform="matrix(0.11790123456790114,0,0,0.11790123456790114,113.06728395061718,0)" xlink:href="#ba"/><use transform="matrix(0.11790123456790114,0,0,0.11790123456790114,136.6475308641974,0)" xlink:href="#ba"/><use transform="matrix(0.11790123456790114,0,0,0.11790123456790114,160.22777777777762,0)" xlink:href="#bd"/></g><path d="M140-251c81 0 123 46 123 126C263-46 219 4 140 4 59 4 17-45 17-125s42-126 123-126zm0 227c63 0 89-41 89-101s-29-99-89-99c-61 0-89 39-89 99S79-25 140-24" id="be"/><path d="M84 4C-5 8 30-112 23-190h32v120c0 31 7 50 39 49 72-2 45-101 50-169h31l1 190h-30c-1-10 1-25-2-33-11 22-28 36-60 37" id="bf"/><path d="M135-143c-3-34-86-38-87 0 15 53 115 12 119 90S17 21 10-45l28-5c4 36 97 45 98 0-10-56-113-15-118-90-4-57 82-63 122-42 12 7 21 19 24 35" id="bg"/><g id="d"><use transform="matrix(0.11790123456790114,0,0,0.11790123456790114,0,0)" xlink:href="#be"/><use transform="matrix(0.11790123456790114,0,0,0.11790123456790114,33.01234567901232,0)" xlink:href="#bf"/><use transform="matrix(0.11790123456790114,0,0,0.11790123456790114,56.592592592592545,0)" xlink:href="#bb"/><use transform="matrix(0.11790123456790114,0,0,0.11790123456790114,68.38271604938265,0)" xlink:href="#aY"/><use transform="matrix(0.11790123456790114,0,0,0.11790123456790114,91.96296296296288,0)" xlink:href="#bf"/><use transform="matrix(0.11790123456790114,0,0,0.11790123456790114,115.5432098765431,0)" xlink:href="#bb"/><use transform="matrix(0.11790123456790114,0,0,0.11790123456790114,127.33333333333323,0)" xlink:href="#bg"/></g><path d="M114-163C36-179 61-72 57 0H25l-1-190h30c1 12-1 29 2 39 6-27 23-49 58-41v29" id="bh"/><g id="e"><use transform="matrix(0.117901234567901,0,0,0.117901234567901,0,0)" xlink:href="#bc"/><use transform="matrix(0.117901234567901,0,0,0.117901234567901,23.5802469135802,0)" xlink:href="#aW"/><use transform="matrix(0.117901234567901,0,0,0.117901234567901,47.1604938271604,0)" xlink:href="#aT"/><use transform="matrix(0.117901234567901,0,0,0.117901234567901,56.47469135802458,0)" xlink:href="#aU"/><use transform="matrix(0.117901234567901,0,0,0.117901234567901,80.05493827160478,0)" xlink:href="#aV"/><use transform="matrix(0.117901234567901,0,0,0.117901234567901,103.63518518518498,0)" xlink:href="#bh"/><use transform="matrix(0.117901234567901,0,0,0.117901234567901,117.6654320987652,0)" xlink:href="#aW"/></g><path d="M30-248c118-7 216 8 213 122C240-48 200 0 122 0H30v-248zM63-27c89 8 146-16 146-99s-60-101-146-95v194" id="bi"/><g id="f"><use transform="matrix(0.117901234567901,0,0,0.117901234567901,0,0)" xlink:href="#bi"/><use transform="matrix(0.117901234567901,0,0,0.117901234567901,30.53641975308636,0)" xlink:href="#aV"/><use transform="matrix(0.117901234567901,0,0,0.117901234567901,54.11666666666656,0)" xlink:href="#bb"/><use transform="matrix(0.117901234567901,0,0,0.117901234567901,65.90679012345666,0)" xlink:href="#aV"/></g><path d="M33 0v-248h34V0H33" id="bj"/><path d="M177-190C167-65 218 103 67 71c-23-6-38-20-44-43l32-5c15 47 100 32 89-28v-30C133-14 115 1 83 1 29 1 15-40 15-95c0-56 16-97 71-98 29-1 48 16 59 35 1-10 0-23 2-32h30zM94-22c36 0 50-32 50-73 0-42-14-75-50-75-39 0-46 34-46 75s6 73 46 73" id="bk"/><path d="M24-231v-30h32v30H24zM24 0v-190h32V0H24" id="bl"/><g id="g"><use transform="matrix(0.117901234567901,0,0,0.117901234567901,0,0)" xlink:href="#bj"/><use transform="matrix(0.117901234567901,0,0,0.117901234567901,11.7901234567901,0)" xlink:href="#aW"/><use transform="matrix(0.117901234567901,0,0,0.117901234567901,35.3703703703703,0)" xlink:href="#bk"/><use transform="matrix(0.117901234567901,0,0,0.117901234567901,58.95061728395051,0)" xlink:href="#aU"/><use transform="matrix(0.117901234567901,0,0,0.117901234567901,82.5308641975307,0)" xlink:href="#bg"/><use transform="matrix(0.117901234567901,0,0,0.117901234567901,103.75308641975289,0)" xlink:href="#bb"/><use transform="matrix(0.117901234567901,0,0,0.117901234567901,115.54320987654299,0)" xlink:href="#bl"/><use transform="matrix(0.117901234567901,0,0,0.117901234567901,124.85740740740715,0)" xlink:href="#ba"/><use transform="matrix(0.117901234567901,0,0,0.117901234567901,148.43765432098738,0)" xlink:href="#aW"/></g><path d="M185-189c-5-48-123-54-124 2 14 75 158 14 163 119 3 78-121 87-175 55-17-10-28-26-33-46l33-7c5 56 141 63 141-1 0-78-155-14-162-118-5-82 145-84 179-34 5 7 8 16 11 25" id="bm"/><path d="M96-169c-40 0-48 33-48 73s9 75 48 75c24 0 41-14 43-38l32 2c-6 37-31 61-74 61-59 0-76-41-82-99-10-93 101-131 147-64 4 7 5 14 7 22l-32 3c-4-21-16-35-41-35" id="bn"/><g id="h"><use transform="matrix(0.117901234567901,0,0,0.117901234567901,0,0)" xlink:href="#bm"/><use transform="matrix(0.117901234567901,0,0,0.117901234567901,28.29629629629624,0)" xlink:href="#bn"/><use transform="matrix(0.117901234567901,0,0,0.117901234567901,49.51851851851842,0)" xlink:href="#bh"/><use transform="matrix(0.117901234567901,0,0,0.117901234567901,63.54876543209864,0)" xlink:href="#bl"/><use transform="matrix(0.117901234567901,0,0,0.117901234567901,72.86296296296283,0)" xlink:href="#aY"/><use transform="matrix(0.117901234567901,0,0,0.117901234567901,96.44320987654302,0)" xlink:href="#bb"/></g><path d="M16-82v-28h88v28H16" id="bo"/><g id="i"><use transform="matrix(0.117901234567901,0,0,0.117901234567901,0,0)" xlink:href="#bm"/><use transform="matrix(0.117901234567901,0,0,0.117901234567901,28.29629629629624,0)" xlink:href="#bf"/><use transform="matrix(0.117901234567901,0,0,0.117901234567901,51.876543209876445,0)" xlink:href="#bc"/><use transform="matrix(0.117901234567901,0,0,0.117901234567901,75.45679012345664,0)" xlink:href="#bo"/><use transform="matrix(0.117901234567901,0,0,0.117901234567901,89.48703703703686,0)" xlink:href="#aY"/><use transform="matrix(0.117901234567901,0,0,0.117901234567901,113.06728395061705,0)" xlink:href="#bh"/><use transform="matrix(0.117901234567901,0,0,0.117901234567901,127.09753086419728,0)" xlink:href="#ba"/><use transform="matrix(0.117901234567901,0,0,0.117901234567901,150.67777777777746,0)" xlink:href="#bn"/><use transform="matrix(0.117901234567901,0,0,0.117901234567901,171.89999999999964,0)" xlink:href="#aU"/><use transform="matrix(0.117901234567901,0,0,0.117901234567901,195.48024691357983,0)" xlink:href="#bg"/><use transform="matrix(0.117901234567901,0,0,0.117901234567901,216.702469135802,0)" xlink:href="#bg"/><use transform="matrix(0.117901234567901,0,0,0.117901234567901,237.92469135802418,0)" xlink:href="#aU"/><use transform="matrix(0.117901234567901,0,0,0.117901234567901,261.5049382716044,0)" xlink:href="#bg"/></g><path d="M194-120c59 52 2 134-86 124-53-6-90-18-98-63l31-7c8 30 29 43 70 43 46 0 84-17 71-62-32-43-135-20-137-98-3-89 178-90 191-16l-30 9c-8-48-127-53-127 5 0 53 81 35 115 65" id="bp"/><path d="M30-147c31-64 166-65 159 27C183-49 158 1 86 4 9 8 1-88 30-147zM88-20c53 0 68-48 68-100 0-31-11-51-44-50-52 1-68 46-68 97 0 32 13 53 44 53" id="bq"/><path d="M66-151c12-25 30-51 66-40l-6 26C45-176 58-65 38 0H6l36-190h30" id="br"/><path d="M103-194c29 0 47 14 56 36 2-11 5-23 8-32h30L160-5C157 61 82 97 21 62 9 55 4 45 1 30l28-7c7 42 83 31 92-3 4-16 9-38 13-55-13 20-29 36-62 36-40 0-60-25-60-64 0-71 23-131 91-131zm4 24c-53 0-58 54-61 104-2 27 10 44 36 44 49 0 65-50 67-102 1-29-15-46-42-46" id="bs"/><path d="M67-158c15-20 31-36 64-36 94 0 33 127 27 194h-32l25-140c3-38-53-32-70-12C52-117 51-51 37 0H6l51-261h31" id="bt"/><path d="M67 3c-93-2-31-127-26-193h32L48-50c-3 39 53 32 70 12 30-34 30-101 43-152h32L157 0h-30c1-10 6-24 4-33-14 20-29 37-64 36" id="bu"/><path d="M248-111c6-24 9-61-24-58-72 9-57 108-77 169h-31l26-142c3-37-50-30-64-10C52-115 50-51 37 0H6l36-190h30c-1 10-6 24-4 32 13-43 101-52 105 5 13-22 29-41 61-41 90 0 28 129 23 194h-31" id="bv"/><g id="j"><use transform="matrix(0.07469135802469135,0,0,0.07469135802469135,0,0)" xlink:href="#bp"/><use transform="matrix(0.07469135802469135,0,0,0.07469135802469135,17.925925925925924,0)" xlink:href="#bq"/><use transform="matrix(0.07469135802469135,0,0,0.07469135802469135,32.86419753086419,0)" xlink:href="#br"/><use transform="matrix(0.07469135802469135,0,0,0.07469135802469135,41.75246913580246,0)" xlink:href="#bs"/><use transform="matrix(0.07469135802469135,0,0,0.07469135802469135,56.69074074074072,0)" xlink:href="#bt"/><use transform="matrix(0.07469135802469135,0,0,0.07469135802469135,71.62901234567899,0)" xlink:href="#bu"/><use transform="matrix(0.07469135802469135,0,0,0.07469135802469135,86.56728395061725,0)" xlink:href="#bv"/></g><path d="M68-162c25-46 127-43 121 31C183-60 169 1 98 4 69 5 53-11 43-31L36 0H5l52-261h31zm88 36c2-27-9-43-34-43-55 0-70 51-70 103 0 29 15 45 43 46 52 0 58-58 61-106" id="bw"/><path d="M50-231l6-30h32l-6 30H50zM6 0l37-190h31L37 0H6" id="bx"/><path d="M44-68c0 29 11 47 38 47 30 0 42-19 51-41l28 9C148-21 126 4 82 4 31 4 10-29 12-85c3-77 74-140 146-93 12 8 15 23 18 40l-31 5c-1-22-13-36-36-36-52 0-65 49-65 101" id="by"/><path d="M6 0l50-261h32L37 0H6" id="bz"/><g id="k"><use transform="matrix(0.07469135802469135,0,0,0.07469135802469135,0,0)" xlink:href="#bw"/><use transform="matrix(0.07469135802469135,0,0,0.07469135802469135,14.938271604938269,0)" xlink:href="#bx"/><use transform="matrix(0.07469135802469135,0,0,0.07469135802469135,20.838888888888885,0)" xlink:href="#by"/><use transform="matrix(0.07469135802469135,0,0,0.07469135802469135,34.28333333333333,0)" xlink:href="#bq"/><use transform="matrix(0.07469135802469135,0,0,0.07469135802469135,49.2216049382716,0)" xlink:href="#bz"/><use transform="matrix(0.07469135802469135,0,0,0.07469135802469135,55.12222222222221,0)" xlink:href="#bq"/><use transform="matrix(0.07469135802469135,0,0,0.07469135802469135,70.06049382716049,0)" xlink:href="#br"/></g><path d="M249-183c0 48-29 72-75 77L221 0h-36l-43-103H65L45 0H11l48-248c83 2 190-17 190 65zm-34 3c0-55-74-39-127-41l-18 92c63-1 145 13 145-51" id="bA"/><path d="M165-48c-4 18 1 34 23 27l-3 20c-29 8-62 0-52-35h-2C116-14 99 4 63 4 30 4 8-16 8-49c0-68 71-67 138-67 10-26 0-56-31-54-26 1-42 9-47 31l-32-5c8-67 160-71 144 15-5 28-9 54-15 81zM42-50c3 52 80 24 89-6 7-12 7-24 11-38-47 1-103-4-100 44" id="bB"/><path d="M188 0h-37l-8-164L71 0H34L18-190h31l8 164 75-164h34l8 164 74-164h31" id="bC"/><g id="l"><use transform="matrix(0.07469135802469135,0,0,0.07469135802469135,0,0)" xlink:href="#bA"/><use transform="matrix(0.07469135802469135,0,0,0.07469135802469135,19.34506172839506,0)" xlink:href="#bB"/><use transform="matrix(0.07469135802469135,0,0,0.07469135802469135,34.28333333333333,0)" xlink:href="#bC"/></g><path d="M111-194c62-3 86 47 72 106H45c-7 38 6 69 45 68 27-1 43-14 53-32l24 11C152-15 129 4 87 4 38 3 12-23 12-71c0-70 32-119 99-123zm44 81c14-66-71-72-95-28-4 8-8 17-11 28h106" id="bD"/><path d="M55-144c13 50 104 24 104 88C159 21 15 23 1-39l26-10c6 40 102 42 102-4-13-50-104-23-104-87 0-71 143-71 148-8l-29 4c-5-35-85-37-89 0" id="bE"/><path d="M67-158c22-48 132-52 116 29L158 0h-32l25-140c3-38-53-32-70-12C52-117 51-52 38 0H6l36-190h30" id="bF"/><g id="m"><use transform="matrix(0.07469135802469135,0,0,0.07469135802469135,0,0)" xlink:href="#bp"/><use transform="matrix(0.07469135802469135,0,0,0.07469135802469135,17.925925925925924,0)" xlink:href="#bD"/><use transform="matrix(0.07469135802469135,0,0,0.07469135802469135,32.86419753086419,0)" xlink:href="#bB"/><use transform="matrix(0.07469135802469135,0,0,0.07469135802469135,47.802469135802454,0)" xlink:href="#bE"/><use transform="matrix(0.07469135802469135,0,0,0.07469135802469135,61.2469135802469,0)" xlink:href="#bq"/><use transform="matrix(0.07469135802469135,0,0,0.07469135802469135,76.18518518518516,0)" xlink:href="#bF"/></g><path d="M248-139C247-14 144 9 11 0l48-248c105-6 190 8 189 109zm-34 0c1-70-52-87-126-82L50-27c98 7 163-21 164-112" id="bG"/><path d="M51-54c-9 22 5 41 31 30L79-1C43 14 10-4 19-52l22-115H19l5-23h22l19-43h21l-9 43h35l-4 23H73" id="bH"/><g id="n"><use transform="matrix(0.07469135802469135,0,0,0.07469135802469135,0,0)" xlink:href="#bG"/><use transform="matrix(0.07469135802469135,0,0,0.07469135802469135,19.34506172839506,0)" xlink:href="#bB"/><use transform="matrix(0.07469135802469135,0,0,0.07469135802469135,34.28333333333333,0)" xlink:href="#bH"/><use transform="matrix(0.07469135802469135,0,0,0.07469135802469135,41.752469135802464,0)" xlink:href="#bB"/><use transform="matrix(0.07469135802469135,0,0,0.07469135802469135,56.690740740740736,0)" xlink:href="#bE"/><use transform="matrix(0.07469135802469135,0,0,0.07469135802469135,70.13518518518518,0)" xlink:href="#bD"/><use transform="matrix(0.07469135802469135,0,0,0.07469135802469135,85.07345679012344,0)" xlink:href="#bH"/><use transform="matrix(0.07469135802469135,0,0,0.07469135802469135,92.54259259259258,0)" xlink:href="#bE"/></g><g id="o"><use transform="matrix(0.07469135802469135,0,0,0.07469135802469135,0,0)" xlink:href="#bi"/><use transform="matrix(0.07469135802469135,0,0,0.07469135802469135,19.34506172839506,0)" xlink:href="#aV"/><use transform="matrix(0.07469135802469135,0,0,0.07469135802469135,34.28333333333333,0)" xlink:href="#bb"/><use transform="matrix(0.07469135802469135,0,0,0.07469135802469135,41.752469135802464,0)" xlink:href="#aV"/></g><g id="p"><use transform="matrix(0.07469135802469135,0,0,0.07469135802469135,0,0)" xlink:href="#aS"/><use transform="matrix(0.07469135802469135,0,0,0.07469135802469135,19.34506172839506,0)" xlink:href="#aT"/><use transform="matrix(0.07469135802469135,0,0,0.07469135802469135,25.245679012345676,0)" xlink:href="#aU"/><use transform="matrix(0.07469135802469135,0,0,0.07469135802469135,40.18395061728394,0)" xlink:href="#aV"/><use transform="matrix(0.07469135802469135,0,0,0.07469135802469135,55.122222222222206,0)" xlink:href="#aW"/><use transform="matrix(0.07469135802469135,0,0,0.07469135802469135,70.06049382716047,0)" xlink:href="#bl"/><use transform="matrix(0.07469135802469135,0,0,0.07469135802469135,75.96111111111108,0)" xlink:href="#aW"/><use transform="matrix(0.07469135802469135,0,0,0.07469135802469135,90.89938271604935,0)" xlink:href="#bk"/></g><g id="q"><use transform="matrix(0.07469135802469135,0,0,0.07469135802469135,0,0)" xlink:href="#aZ"/><use transform="matrix(0.07469135802469135,0,0,0.07469135802469135,19.34506172839506,0)" xlink:href="#ba"/><use transform="matrix(0.07469135802469135,0,0,0.07469135802469135,34.28333333333333,0)" xlink:href="#bb"/><use transform="matrix(0.07469135802469135,0,0,0.07469135802469135,41.752469135802464,0)" xlink:href="#aU"/><use transform="matrix(0.07469135802469135,0,0,0.07469135802469135,56.690740740740736,0)" xlink:href="#bc"/><use transform="matrix(0.07469135802469135,0,0,0.07469135802469135,71.629012345679,0)" xlink:href="#ba"/><use transform="matrix(0.07469135802469135,0,0,0.07469135802469135,86.56728395061727,0)" xlink:href="#ba"/><use transform="matrix(0.07469135802469135,0,0,0.07469135802469135,101.50555555555553,0)" xlink:href="#bd"/></g><g id="r"><use transform="matrix(0.07469135802469135,0,0,0.07469135802469135,0,0)" xlink:href="#bm"/><use transform="matrix(0.07469135802469135,0,0,0.07469135802469135,17.925925925925924,0)" xlink:href="#bb"/><use transform="matrix(0.07469135802469135,0,0,0.07469135802469135,25.395061728395056,0)" xlink:href="#aV"/><use transform="matrix(0.07469135802469135,0,0,0.07469135802469135,40.33333333333333,0)" xlink:href="#bn"/><use transform="matrix(0.07469135802469135,0,0,0.07469135802469135,53.77777777777777,0)" xlink:href="#bd"/></g><path d="M127-220V0H93v-220H8v-28h204v28h-85" id="bI"/><g id="s"><use transform="matrix(0.07469135802469135,0,0,0.07469135802469135,0,0)" xlink:href="#bI"/><use transform="matrix(0.07469135802469135,0,0,0.07469135802469135,13.36975308641975,0)" xlink:href="#aV"/><use transform="matrix(0.07469135802469135,0,0,0.07469135802469135,28.30802469135802,0)" xlink:href="#aT"/><use transform="matrix(0.07469135802469135,0,0,0.07469135802469135,34.20864197530864,0)" xlink:href="#aT"/></g><path d="M63-220v92h138v28H63V0H30v-248h175v28H63" id="bJ"/><path d="M210-169c-67 3-38 105-44 169h-31v-121c0-29-5-50-35-48C34-165 62-65 56 0H25l-1-190h30c1 10-1 24 2 32 10-44 99-50 107 0 11-21 27-35 58-36 85-2 47 119 55 194h-31v-121c0-29-5-49-35-48" id="bK"/><g id="t"><use transform="matrix(0.07469135802469135,0,0,0.07469135802469135,0,0)" xlink:href="#bJ"/><use transform="matrix(0.07469135802469135,0,0,0.07469135802469135,16.357407407407404,0)" xlink:href="#ba"/><use transform="matrix(0.07469135802469135,0,0,0.07469135802469135,31.295679012345673,0)" xlink:href="#bh"/><use transform="matrix(0.07469135802469135,0,0,0.07469135802469135,40.18395061728394,0)" xlink:href="#bK"/><use transform="matrix(0.07469135802469135,0,0,0.07469135802469135,62.516666666666644,0)" xlink:href="#aV"/><use transform="matrix(0.07469135802469135,0,0,0.07469135802469135,77.4549382716049,0)" xlink:href="#bb"/></g><path d="M137 0h-34L2-248h35l83 218 83-218h36" id="bL"/><g id="u"><use transform="matrix(0.07469135802469135,0,0,0.07469135802469135,0,0)" xlink:href="#aS"/><use transform="matrix(0.07469135802469135,0,0,0.07469135802469135,19.34506172839506,0)" xlink:href="#bm"/><use transform="matrix(0.07469135802469135,0,0,0.07469135802469135,37.27098765432098,0)" xlink:href="#bL"/></g><path d="M101-234c-31-9-42 10-38 44h38v23H63V0H32v-167H5v-23h27c-7-52 17-82 69-68v24" id="bM"/><g id="v"><use transform="matrix(0.07469135802469135,0,0,0.07469135802469135,0,0)" xlink:href="#bM"/><use transform="matrix(0.07469135802469135,0,0,0.07469135802469135,7.469135802469134,0)" xlink:href="#ba"/><use transform="matrix(0.07469135802469135,0,0,0.07469135802469135,22.407407407407405,0)" xlink:href="#bh"/></g><path d="M106-169C34-169 62-67 57 0H25v-261h32l-1 103c12-21 28-36 61-36 89 0 53 116 60 194h-32v-121c2-32-8-49-39-48" id="bN"/><g id="w"><use transform="matrix(0.07469135802469135,0,0,0.07469135802469135,0,0)" xlink:href="#aU"/><use transform="matrix(0.07469135802469135,0,0,0.07469135802469135,14.938271604938269,0)" xlink:href="#aV"/><use transform="matrix(0.07469135802469135,0,0,0.07469135802469135,29.876543209876537,0)" xlink:href="#bn"/><use transform="matrix(0.07469135802469135,0,0,0.07469135802469135,43.32098765432098,0)" xlink:href="#bN"/></g><path d="M47-170H22l-4-78h33" id="bO"/><g id="x"><use transform="matrix(0.07469135802469135,0,0,0.07469135802469135,0,0)" xlink:href="#bg"/><use transform="matrix(0.07469135802469135,0,0,0.07469135802469135,13.444444444444443,0)" xlink:href="#aU"/><use transform="matrix(0.07469135802469135,0,0,0.07469135802469135,28.38271604938271,0)" xlink:href="#aV"/><use transform="matrix(0.07469135802469135,0,0,0.07469135802469135,43.32098765432098,0)" xlink:href="#bg"/><use transform="matrix(0.07469135802469135,0,0,0.07469135802469135,56.76543209876542,0)" xlink:href="#ba"/><use transform="matrix(0.07469135802469135,0,0,0.07469135802469135,71.7037037037037,0)" xlink:href="#aW"/><use transform="matrix(0.07469135802469135,0,0,0.07469135802469135,86.64197530864196,0)" xlink:href="#bO"/><use transform="matrix(0.07469135802469135,0,0,0.07469135802469135,91.72098765432098,0)" xlink:href="#bg"/></g><g id="y"><use transform="matrix(0.07469135802469135,0,0,0.07469135802469135,0,0)" xlink:href="#bb"/><use transform="matrix(0.07469135802469135,0,0,0.07469135802469135,7.469135802469134,0)" xlink:href="#bh"/><use transform="matrix(0.07469135802469135,0,0,0.07469135802469135,16.357407407407404,0)" xlink:href="#aV"/><use transform="matrix(0.07469135802469135,0,0,0.07469135802469135,31.295679012345673,0)" xlink:href="#bl"/><use transform="matrix(0.07469135802469135,0,0,0.07469135802469135,37.19629629629629,0)" xlink:href="#bb"/></g><path d="M85-194c31 0 48 13 60 33l-1-100h32l1 261h-30c-2-10 0-23-3-31C134-8 116 4 85 4 32 4 16-35 15-94c0-66 23-100 70-100zm9 24c-40 0-46 34-46 75 0 40 6 74 45 74 42 0 51-32 51-76 0-42-9-74-50-73" id="bP"/><g id="z"><use transform="matrix(0.07469135802469135,0,0,0.07469135802469135,0,0)" xlink:href="#bP"/><use transform="matrix(0.07469135802469135,0,0,0.07469135802469135,14.938271604938269,0)" xlink:href="#aV"/><use transform="matrix(0.07469135802469135,0,0,0.07469135802469135,29.876543209876537,0)" xlink:href="#bb"/><use transform="matrix(0.07469135802469135,0,0,0.07469135802469135,37.34567901234567,0)" xlink:href="#aV"/></g><path d="M108 0H70L1-190h34L89-25l56-165h34" id="bQ"/><g id="B"><use transform="matrix(0.07469135802469135,0,0,0.07469135802469135,0,0)" xlink:href="#bi"/><use transform="matrix(0.07469135802469135,0,0,0.07469135802469135,19.34506172839506,0)" xlink:href="#aU"/><use transform="matrix(0.07469135802469135,0,0,0.07469135802469135,34.28333333333333,0)" xlink:href="#bh"/><use transform="matrix(0.07469135802469135,0,0,0.07469135802469135,43.1716049382716,0)" xlink:href="#bl"/><use transform="matrix(0.07469135802469135,0,0,0.07469135802469135,49.072222222222216,0)" xlink:href="#bQ"/><use transform="matrix(0.07469135802469135,0,0,0.07469135802469135,62.51666666666666,0)" xlink:href="#aU"/><use transform="matrix(0.07469135802469135,0,0,0.07469135802469135,77.45493827160493,0)" xlink:href="#bP"/><path d="M-1.34 1.86H101.2v1.97H-1.33z"/></g><path d="M33-154v-36h34v36H33zM33 0v-36h34V0H33" id="bR"/><g id="C"><use transform="matrix(0.07469135802469135,0,0,0.07469135802469135,0,0)" xlink:href="#bJ"/><use transform="matrix(0.07469135802469135,0,0,0.07469135802469135,16.357407407407404,0)" xlink:href="#aU"/><use transform="matrix(0.07469135802469135,0,0,0.07469135802469135,31.295679012345673,0)" xlink:href="#aV"/><use transform="matrix(0.07469135802469135,0,0,0.07469135802469135,46.23395061728394,0)" xlink:href="#bb"/><use transform="matrix(0.07469135802469135,0,0,0.07469135802469135,53.70308641975307,0)" xlink:href="#bf"/><use transform="matrix(0.07469135802469135,0,0,0.07469135802469135,68.64135802469134,0)" xlink:href="#bh"/><use transform="matrix(0.07469135802469135,0,0,0.07469135802469135,77.52962962962961,0)" xlink:href="#aU"/><use transform="matrix(0.07469135802469135,0,0,0.07469135802469135,92.46790123456788,0)" xlink:href="#bg"/><use transform="matrix(0.07469135802469135,0,0,0.07469135802469135,105.9123456790123,0)" xlink:href="#bR"/><path d="M-1.34 1.86h116.07v1.97H-1.34z"/></g><path d="M27 0v-27h64v-190l-56 39v-29l58-41h29v221h61V0H27" id="bS"/><path d="M33 0v-38h34V0H33" id="bT"/><g id="D"><use transform="matrix(0.07469135802469135,0,0,0.07469135802469135,0,0)" xlink:href="#bS"/><use transform="matrix(0.07469135802469135,0,0,0.07469135802469135,14.938271604938269,0)" xlink:href="#bT"/></g><g id="E"><use transform="matrix(0.07469135802469135,0,0,0.07469135802469135,0,0)" xlink:href="#aW"/><use transform="matrix(0.07469135802469135,0,0,0.07469135802469135,14.938271604938269,0)" xlink:href="#ba"/></g><g id="F"><use transform="matrix(0.07469135802469135,0,0,0.07469135802469135,0,0)" xlink:href="#bK"/><use transform="matrix(0.07469135802469135,0,0,0.07469135802469135,22.33271604938271,0)" xlink:href="#aV"/><use transform="matrix(0.07469135802469135,0,0,0.07469135802469135,37.270987654320976,0)" xlink:href="#aW"/><use transform="matrix(0.07469135802469135,0,0,0.07469135802469135,52.20925925925924,0)" xlink:href="#bf"/><use transform="matrix(0.07469135802469135,0,0,0.07469135802469135,67.1475308641975,0)" xlink:href="#aV"/><use transform="matrix(0.07469135802469135,0,0,0.07469135802469135,82.08580246913577,0)" xlink:href="#aT"/></g><g id="G"><use transform="matrix(0.07469135802469135,0,0,0.07469135802469135,0,0)" xlink:href="#bN"/><use transform="matrix(0.07469135802469135,0,0,0.07469135802469135,14.938271604938269,0)" xlink:href="#aU"/><use transform="matrix(0.07469135802469135,0,0,0.07469135802469135,29.876543209876537,0)" xlink:href="#bl"/><use transform="matrix(0.07469135802469135,0,0,0.07469135802469135,35.777160493827154,0)" xlink:href="#bk"/><use transform="matrix(0.07469135802469135,0,0,0.07469135802469135,50.71543209876541,0)" xlink:href="#bN"/><use transform="matrix(0.07469135802469135,0,0,0.07469135802469135,65.65370370370368,0)" xlink:href="#bb"/><use transform="matrix(0.07469135802469135,0,0,0.07469135802469135,73.12283950617282,0)" xlink:href="#bg"/></g><path d="M101-251c82-7 93 87 43 132L82-64C71-53 59-42 53-27h129V0H18c2-99 128-94 128-182 0-28-16-43-45-43s-46 15-49 41l-32-3c6-41 34-60 81-64" id="bU"/><g id="H"><use transform="matrix(0.07469135802469135,0,0,0.07469135802469135,0,0)" xlink:href="#bU"/><use transform="matrix(0.07469135802469135,0,0,0.07469135802469135,14.938271604938269,0)" xlink:href="#bT"/></g><path d="M87 75C49 33 22-17 22-94c0-76 28-126 65-167h31c-38 41-64 92-64 168S80 34 118 75H87" id="bV"/><path d="M0 4l72-265h28L28 4H0" id="bW"/><g id="I"><use transform="matrix(0.07469135802469135,0,0,0.07469135802469135,0,0)" xlink:href="#bV"/><use transform="matrix(0.07469135802469135,0,0,0.07469135802469135,8.88827160493827,0)" xlink:href="#bb"/><use transform="matrix(0.07469135802469135,0,0,0.07469135802469135,16.357407407407404,0)" xlink:href="#bh"/><use transform="matrix(0.07469135802469135,0,0,0.07469135802469135,25.245679012345676,0)" xlink:href="#bf"/><use transform="matrix(0.07469135802469135,0,0,0.07469135802469135,40.18395061728394,0)" xlink:href="#aU"/><use transform="matrix(0.07469135802469135,0,0,0.07469135802469135,55.122222222222206,0)" xlink:href="#bW"/><use transform="matrix(0.07469135802469135,0,0,0.07469135802469135,62.59135802469134,0)" xlink:href="#bM"/><use transform="matrix(0.07469135802469135,0,0,0.07469135802469135,70.06049382716047,0)" xlink:href="#aV"/><use transform="matrix(0.07469135802469135,0,0,0.07469135802469135,84.99876543209874,0)" xlink:href="#aT"/><use transform="matrix(0.07469135802469135,0,0,0.07469135802469135,90.89938271604937,0)" xlink:href="#bg"/><use transform="matrix(0.07469135802469135,0,0,0.07469135802469135,104.34382716049382,0)" xlink:href="#aU"/></g><g id="J"><use transform="matrix(0.07469135802469135,0,0,0.07469135802469135,0,0)" xlink:href="#bc"/><use transform="matrix(0.07469135802469135,0,0,0.07469135802469135,14.938271604938269,0)" xlink:href="#ba"/><use transform="matrix(0.07469135802469135,0,0,0.07469135802469135,29.876543209876537,0)" xlink:href="#ba"/><use transform="matrix(0.07469135802469135,0,0,0.07469135802469135,44.81481481481481,0)" xlink:href="#aT"/><use transform="matrix(0.07469135802469135,0,0,0.07469135802469135,50.715432098765426,0)" xlink:href="#aU"/><use transform="matrix(0.07469135802469135,0,0,0.07469135802469135,65.6537037037037,0)" xlink:href="#aV"/><use transform="matrix(0.07469135802469135,0,0,0.07469135802469135,80.59197530864196,0)" xlink:href="#aW"/></g><g id="K"><use transform="matrix(0.07469135802469135,0,0,0.07469135802469135,0,0)" xlink:href="#bQ"/><use transform="matrix(0.07469135802469135,0,0,0.07469135802469135,13.444444444444443,0)" xlink:href="#aV"/><use transform="matrix(0.07469135802469135,0,0,0.07469135802469135,28.38271604938271,0)" xlink:href="#aT"/><use transform="matrix(0.07469135802469135,0,0,0.07469135802469135,34.28333333333333,0)" xlink:href="#bf"/><use transform="matrix(0.07469135802469135,0,0,0.07469135802469135,49.2216049382716,0)" xlink:href="#aU"/></g><g id="L"><use transform="matrix(0.07469135802469135,0,0,0.07469135802469135,0,0)" xlink:href="#ba"/><use transform="matrix(0.07469135802469135,0,0,0.07469135802469135,14.938271604938269,0)" xlink:href="#aW"/></g><g id="M"><use transform="matrix(0.07469135802469135,0,0,0.07469135802469135,0,0)" xlink:href="#bP"/><use transform="matrix(0.07469135802469135,0,0,0.07469135802469135,14.938271604938269,0)" xlink:href="#aV"/><use transform="matrix(0.07469135802469135,0,0,0.07469135802469135,29.876543209876537,0)" xlink:href="#bb"/><use transform="matrix(0.07469135802469135,0,0,0.07469135802469135,37.34567901234567,0)" xlink:href="#aU"/></g><g id="N"><use transform="matrix(0.07469135802469135,0,0,0.07469135802469135,0,0)" xlink:href="#ba"/><use transform="matrix(0.07469135802469135,0,0,0.07469135802469135,14.938271604938269,0)" xlink:href="#bc"/><use transform="matrix(0.07469135802469135,0,0,0.07469135802469135,29.876543209876537,0)" xlink:href="#bg"/><use transform="matrix(0.07469135802469135,0,0,0.07469135802469135,43.32098765432098,0)" xlink:href="#aU"/><use transform="matrix(0.07469135802469135,0,0,0.07469135802469135,58.25925925925925,0)" xlink:href="#bh"/><use transform="matrix(0.07469135802469135,0,0,0.07469135802469135,67.14753086419752,0)" xlink:href="#bQ"/><use transform="matrix(0.07469135802469135,0,0,0.07469135802469135,80.59197530864196,0)" xlink:href="#aU"/><use transform="matrix(0.07469135802469135,0,0,0.07469135802469135,95.53024691358023,0)" xlink:href="#bP"/></g><path d="M179-190L93 31C79 59 56 82 12 73V49c39 6 53-20 64-50L1-190h34L92-34l54-156h33" id="bX"/><g id="O"><use transform="matrix(0.07469135802469135,0,0,0.07469135802469135,0,0)" xlink:href="#bc"/><use transform="matrix(0.07469135802469135,0,0,0.07469135802469135,14.938271604938269,0)" xlink:href="#bX"/></g><path d="M33-261c38 41 65 92 65 168S71 34 33 75H2C39 34 66-17 66-93S39-220 2-261h31" id="bY"/><g id="P"><use transform="matrix(0.07469135802469135,0,0,0.07469135802469135,0,0)" xlink:href="#bn"/><use transform="matrix(0.07469135802469135,0,0,0.07469135802469135,13.444444444444443,0)" xlink:href="#bf"/><use transform="matrix(0.07469135802469135,0,0,0.07469135802469135,28.38271604938271,0)" xlink:href="#aT"/><use transform="matrix(0.07469135802469135,0,0,0.07469135802469135,34.28333333333333,0)" xlink:href="#bb"/><use transform="matrix(0.07469135802469135,0,0,0.07469135802469135,41.752469135802464,0)" xlink:href="#bl"/><use transform="matrix(0.07469135802469135,0,0,0.07469135802469135,47.65308641975308,0)" xlink:href="#bQ"/><use transform="matrix(0.07469135802469135,0,0,0.07469135802469135,61.09753086419752,0)" xlink:href="#aV"/><use transform="matrix(0.07469135802469135,0,0,0.07469135802469135,76.03580246913579,0)" xlink:href="#bh"/><use transform="matrix(0.07469135802469135,0,0,0.07469135802469135,84.92407407407406,0)" xlink:href="#bY"/><use transform="matrix(0.07469135802469135,0,0,0.07469135802469135,93.81234567901232,0)" xlink:href="#bR"/></g><path d="M206 0h-36l-40-164L89 0H53L-1-190h32L70-26l43-164h34l41 164 42-164h31" id="bZ"/><g id="Q"><use transform="matrix(0.07469135802469135,0,0,0.07469135802469135,0,0)" xlink:href="#bM"/><use transform="matrix(0.07469135802469135,0,0,0.07469135802469135,7.469135802469134,0)" xlink:href="#aT"/><use transform="matrix(0.07469135802469135,0,0,0.07469135802469135,13.36975308641975,0)" xlink:href="#ba"/><use transform="matrix(0.07469135802469135,0,0,0.07469135802469135,28.30802469135802,0)" xlink:href="#bZ"/><use transform="matrix(0.07469135802469135,0,0,0.07469135802469135,47.65308641975308,0)" xlink:href="#aU"/><use transform="matrix(0.07469135802469135,0,0,0.07469135802469135,62.591358024691345,0)" xlink:href="#bh"/><use transform="matrix(0.07469135802469135,0,0,0.07469135802469135,71.47962962962961,0)" xlink:href="#bl"/><use transform="matrix(0.07469135802469135,0,0,0.07469135802469135,77.38024691358024,0)" xlink:href="#aW"/><use transform="matrix(0.07469135802469135,0,0,0.07469135802469135,92.3185185185185,0)" xlink:href="#bk"/></g><path d="M126-127c33 6 58 20 58 59 0 88-139 92-164 29-3-8-5-16-6-25l32-3c6 27 21 44 54 44 32 0 52-15 52-46 0-38-36-46-79-43v-28c39 1 72-4 72-42 0-27-17-43-46-43-28 0-47 15-49 41l-32-3c6-42 35-63 81-64 48-1 79 21 79 65 0 36-21 52-52 59" id="ca"/><g id="R"><use transform="matrix(0.07469135802469135,0,0,0.07469135802469135,0,0)" xlink:href="#ca"/><use transform="matrix(0.07469135802469135,0,0,0.07469135802469135,14.938271604938269,0)" xlink:href="#bT"/></g><g id="S"><use transform="matrix(0.07469135802469135,0,0,0.07469135802469135,0,0)" xlink:href="#bM"/><use transform="matrix(0.07469135802469135,0,0,0.07469135802469135,7.469135802469134,0)" xlink:href="#aT"/><use transform="matrix(0.07469135802469135,0,0,0.07469135802469135,13.36975308641975,0)" xlink:href="#aV"/><use transform="matrix(0.07469135802469135,0,0,0.07469135802469135,28.30802469135802,0)" xlink:href="#bk"/></g><g id="T"><use transform="matrix(0.07469135802469135,0,0,0.07469135802469135,0,0)" xlink:href="#aT"/><use transform="matrix(0.07469135802469135,0,0,0.07469135802469135,5.900617283950616,0)" xlink:href="#aU"/><use transform="matrix(0.07469135802469135,0,0,0.07469135802469135,20.838888888888885,0)" xlink:href="#aV"/><use transform="matrix(0.07469135802469135,0,0,0.07469135802469135,35.777160493827154,0)" xlink:href="#bM"/></g><g id="U"><use transform="matrix(0.07469135802469135,0,0,0.07469135802469135,0,0)" xlink:href="#aU"/><use transform="matrix(0.07469135802469135,0,0,0.07469135802469135,14.938271604938269,0)" xlink:href="#bK"/><use transform="matrix(0.07469135802469135,0,0,0.07469135802469135,37.270987654320976,0)" xlink:href="#aU"/><use transform="matrix(0.07469135802469135,0,0,0.07469135802469135,52.20925925925924,0)" xlink:href="#bh"/><use transform="matrix(0.07469135802469135,0,0,0.07469135802469135,61.09753086419751,0)" xlink:href="#bk"/><use transform="matrix(0.07469135802469135,0,0,0.07469135802469135,76.03580246913577,0)" xlink:href="#aU"/><use transform="matrix(0.07469135802469135,0,0,0.07469135802469135,90.97407407407404,0)" xlink:href="#aW"/><use transform="matrix(0.07469135802469135,0,0,0.07469135802469135,105.9123456790123,0)" xlink:href="#bn"/><use transform="matrix(0.07469135802469135,0,0,0.07469135802469135,119.35679012345675,0)" xlink:href="#aU"/></g><path d="M18-150v-26h174v26H18zm0 90v-26h174v26H18" id="cb"/><use transform="matrix(0.07469135802469135,0,0,0.07469135802469135,0,0)" xlink:href="#cb" id="V"/><g id="W"><use transform="matrix(0.07469135802469135,0,0,0.07469135802469135,0,0)" xlink:href="#bg"/><use transform="matrix(0.07469135802469135,0,0,0.07469135802469135,13.444444444444443,0)" xlink:href="#aV"/><use transform="matrix(0.07469135802469135,0,0,0.07469135802469135,28.38271604938271,0)" xlink:href="#bK"/><use transform="matrix(0.07469135802469135,0,0,0.07469135802469135,50.71543209876541,0)" xlink:href="#aU"/></g><g id="X"><use transform="matrix(0.07469135802469135,0,0,0.07469135802469135,0,0)" xlink:href="#bc"/><use transform="matrix(0.07469135802469135,0,0,0.07469135802469135,14.938271604938269,0)" xlink:href="#ba"/><use transform="matrix(0.07469135802469135,0,0,0.07469135802469135,29.876543209876537,0)" xlink:href="#ba"/><use transform="matrix(0.07469135802469135,0,0,0.07469135802469135,44.81481481481481,0)" xlink:href="#aT"/><use transform="matrix(0.07469135802469135,0,0,0.07469135802469135,50.715432098765426,0)" xlink:href="#aU"/><use transform="matrix(0.07469135802469135,0,0,0.07469135802469135,65.6537037037037,0)" xlink:href="#aV"/><use transform="matrix(0.07469135802469135,0,0,0.07469135802469135,80.59197530864196,0)" xlink:href="#aW"/></g><g id="Y"><use transform="matrix(0.07469135802469135,0,0,0.07469135802469135,0,0)" xlink:href="#bM"/><use transform="matrix(0.07469135802469135,0,0,0.07469135802469135,7.469135802469134,0)" xlink:href="#ba"/><use transform="matrix(0.07469135802469135,0,0,0.07469135802469135,22.407407407407405,0)" xlink:href="#bh"/><use transform="matrix(0.07469135802469135,0,0,0.07469135802469135,31.295679012345673,0)" xlink:href="#bK"/><use transform="matrix(0.07469135802469135,0,0,0.07469135802469135,53.62839506172838,0)" xlink:href="#aV"/><use transform="matrix(0.07469135802469135,0,0,0.07469135802469135,68.56666666666665,0)" xlink:href="#bb"/></g><path d="M266 0h-40l-56-210L115 0H75L2-248h35L96-30l15-64 43-154h32l59 218 59-218h35" id="cc"/><g id="Z"><use transform="matrix(0.07469135802469135,0,0,0.07469135802469135,0,0)" xlink:href="#cc"/><use transform="matrix(0.07469135802469135,0,0,0.07469135802469135,24.797530864197526,0)" xlink:href="#aU"/><use transform="matrix(0.07469135802469135,0,0,0.07469135802469135,39.735802469135784,0)" xlink:href="#aV"/><use transform="matrix(0.07469135802469135,0,0,0.07469135802469135,54.674074074074056,0)" xlink:href="#bb"/><use transform="matrix(0.07469135802469135,0,0,0.07469135802469135,62.14320987654319,0)" xlink:href="#bN"/><use transform="matrix(0.07469135802469135,0,0,0.07469135802469135,77.08148148148148,0)" xlink:href="#aU"/><use transform="matrix(0.07469135802469135,0,0,0.07469135802469135,92.01975308641973,0)" xlink:href="#bh"/></g><g id="aa"><use transform="matrix(0.07469135802469135,0,0,0.07469135802469135,0,0)" xlink:href="#bP"/><use transform="matrix(0.07469135802469135,0,0,0.07469135802469135,14.938271604938269,0)" xlink:href="#aV"/><use transform="matrix(0.07469135802469135,0,0,0.07469135802469135,29.876543209876537,0)" xlink:href="#bb"/><use transform="matrix(0.07469135802469135,0,0,0.07469135802469135,37.34567901234567,0)" xlink:href="#aV"/></g><g id="ab"><use transform="matrix(0.07469135802469135,0,0,0.07469135802469135,0,0)" xlink:href="#bM"/><use transform="matrix(0.07469135802469135,0,0,0.07469135802469135,7.469135802469134,0)" xlink:href="#ba"/><use transform="matrix(0.07469135802469135,0,0,0.07469135802469135,22.407407407407405,0)" xlink:href="#bh"/></g><g id="ac"><use transform="matrix(0.07469135802469135,0,0,0.07469135802469135,0,0)" xlink:href="#bg"/><use transform="matrix(0.07469135802469135,0,0,0.07469135802469135,13.444444444444443,0)" xlink:href="#aU"/><use transform="matrix(0.07469135802469135,0,0,0.07469135802469135,28.38271604938271,0)" xlink:href="#aV"/><use transform="matrix(0.07469135802469135,0,0,0.07469135802469135,43.32098765432098,0)" xlink:href="#bg"/><use transform="matrix(0.07469135802469135,0,0,0.07469135802469135,56.76543209876542,0)" xlink:href="#ba"/><use transform="matrix(0.07469135802469135,0,0,0.07469135802469135,71.7037037037037,0)" xlink:href="#aW"/></g><g id="ad"><use transform="matrix(0.07469135802469135,0,0,0.07469135802469135,0,0)" xlink:href="#bZ"/><use transform="matrix(0.07469135802469135,0,0,0.07469135802469135,19.34506172839506,0)" xlink:href="#bl"/><use transform="matrix(0.07469135802469135,0,0,0.07469135802469135,25.245679012345676,0)" xlink:href="#bb"/><use transform="matrix(0.07469135802469135,0,0,0.07469135802469135,32.71481481481481,0)" xlink:href="#bN"/></g><path d="M143 4C61 4 22-44 18-125c-5-107 100-154 193-111 17 8 29 25 37 43l-32 9c-13-25-37-40-76-40-61 0-88 39-88 99 0 61 29 100 91 101 35 0 62-11 79-27v-45h-74v-28h105v86C228-13 192 4 143 4" id="cd"/><g id="ae"><use transform="matrix(0.07469135802469135,0,0,0.07469135802469135,0,0)" xlink:href="#cd"/><use transform="matrix(0.07469135802469135,0,0,0.07469135802469135,20.913580246913575,0)" xlink:href="#bi"/><use transform="matrix(0.07469135802469135,0,0,0.07469135802469135,40.258641975308635,0)" xlink:href="#bi"/></g><g id="af"><use transform="matrix(0.07469135802469135,0,0,0.07469135802469135,0,0)" xlink:href="#aV"/><use transform="matrix(0.07469135802469135,0,0,0.07469135802469135,14.938271604938269,0)" xlink:href="#aW"/><use transform="matrix(0.07469135802469135,0,0,0.07469135802469135,29.876543209876537,0)" xlink:href="#bP"/></g><g id="ag"><use transform="matrix(0.07469135802469135,0,0,0.07469135802469135,0,0)" xlink:href="#bP"/><use transform="matrix(0.07469135802469135,0,0,0.07469135802469135,14.938271604938269,0)" xlink:href="#bh"/><use transform="matrix(0.07469135802469135,0,0,0.07469135802469135,23.82654320987654,0)" xlink:href="#ba"/><use transform="matrix(0.07469135802469135,0,0,0.07469135802469135,38.764814814814805,0)" xlink:href="#bf"/><use transform="matrix(0.07469135802469135,0,0,0.07469135802469135,53.70308641975308,0)" xlink:href="#bk"/><use transform="matrix(0.07469135802469135,0,0,0.07469135802469135,68.64135802469134,0)" xlink:href="#bN"/><use transform="matrix(0.07469135802469135,0,0,0.07469135802469135,83.57962962962962,0)" xlink:href="#bb"/></g><g id="ah"><use transform="matrix(0.07469135802469135,0,0,0.07469135802469135,0,0)" xlink:href="#aS"/><use transform="matrix(0.07469135802469135,0,0,0.07469135802469135,19.34506172839506,0)" xlink:href="#bf"/><use transform="matrix(0.07469135802469135,0,0,0.07469135802469135,34.28333333333333,0)" xlink:href="#aT"/><use transform="matrix(0.07469135802469135,0,0,0.07469135802469135,40.18395061728394,0)" xlink:href="#bb"/><use transform="matrix(0.07469135802469135,0,0,0.07469135802469135,47.65308641975308,0)" xlink:href="#bl"/><use transform="matrix(0.07469135802469135,0,0,0.07469135802469135,53.5537037037037,0)" xlink:href="#bQ"/><use transform="matrix(0.07469135802469135,0,0,0.07469135802469135,66.99814814814815,0)" xlink:href="#aV"/><use transform="matrix(0.07469135802469135,0,0,0.07469135802469135,81.93641975308641,0)" xlink:href="#bh"/></g><path d="M30 0v-248h33v221h125V0H30" id="ce"/><g id="ai"><use transform="matrix(0.07469135802469135,0,0,0.07469135802469135,0,0)" xlink:href="#ce"/><use transform="matrix(0.07469135802469135,0,0,0.07469135802469135,14.938271604938269,0)" xlink:href="#ba"/><use transform="matrix(0.07469135802469135,0,0,0.07469135802469135,29.876543209876537,0)" xlink:href="#ba"/><use transform="matrix(0.07469135802469135,0,0,0.07469135802469135,44.81481481481481,0)" xlink:href="#bd"/></g><g id="aj"><use transform="matrix(0.07469135802469135,0,0,0.07469135802469135,0,0)" xlink:href="#bf"/><use transform="matrix(0.07469135802469135,0,0,0.07469135802469135,14.938271604938269,0)" xlink:href="#aY"/></g><g id="ak"><use transform="matrix(0.07469135802469135,0,0,0.07469135802469135,0,0)" xlink:href="#bI"/><use transform="matrix(0.07469135802469135,0,0,0.07469135802469135,13.36975308641975,0)" xlink:href="#aV"/><use transform="matrix(0.07469135802469135,0,0,0.07469135802469135,28.30802469135802,0)" xlink:href="#bc"/><use transform="matrix(0.07469135802469135,0,0,0.07469135802469135,43.2462962962963,0)" xlink:href="#aT"/><use transform="matrix(0.07469135802469135,0,0,0.07469135802469135,49.14691358024692,0)" xlink:href="#aU"/></g><g id="al"><use transform="matrix(0.07469135802469135,0,0,0.07469135802469135,0,0)" xlink:href="#bc"/><use transform="matrix(0.07469135802469135,0,0,0.07469135802469135,14.938271604938269,0)" xlink:href="#aW"/><use transform="matrix(0.07469135802469135,0,0,0.07469135802469135,29.876543209876537,0)" xlink:href="#aT"/><use transform="matrix(0.07469135802469135,0,0,0.07469135802469135,35.777160493827154,0)" xlink:href="#aU"/><use transform="matrix(0.07469135802469135,0,0,0.07469135802469135,50.71543209876541,0)" xlink:href="#aV"/><use transform="matrix(0.07469135802469135,0,0,0.07469135802469135,65.65370370370368,0)" xlink:href="#bh"/><use transform="matrix(0.07469135802469135,0,0,0.07469135802469135,74.54197530864195,0)" xlink:href="#aW"/></g><g id="am"><use transform="matrix(0.07469135802469135,0,0,0.07469135802469135,0,0)" xlink:href="#bP"/><use transform="matrix(0.07469135802469135,0,0,0.07469135802469135,14.938271604938269,0)" xlink:href="#aV"/><use transform="matrix(0.07469135802469135,0,0,0.07469135802469135,29.876543209876537,0)" xlink:href="#bb"/><use transform="matrix(0.07469135802469135,0,0,0.07469135802469135,37.34567901234567,0)" xlink:href="#aV"/></g><g id="an"><use transform="matrix(0.07469135802469135,0,0,0.07469135802469135,0,0)" xlink:href="#bl"/><use transform="matrix(0.07469135802469135,0,0,0.07469135802469135,5.900617283950616,0)" xlink:href="#bK"/><use transform="matrix(0.07469135802469135,0,0,0.07469135802469135,28.233333333333327,0)" xlink:href="#aY"/><use transform="matrix(0.07469135802469135,0,0,0.07469135802469135,43.1716049382716,0)" xlink:href="#ba"/><use transform="matrix(0.07469135802469135,0,0,0.07469135802469135,58.109876543209865,0)" xlink:href="#bh"/><use transform="matrix(0.07469135802469135,0,0,0.07469135802469135,66.99814814814813,0)" xlink:href="#bb"/></g><g id="ao"><use transform="matrix(0.07469135802469135,0,0,0.07469135802469135,0,0)" xlink:href="#aV"/><use transform="matrix(0.07469135802469135,0,0,0.07469135802469135,14.938271604938269,0)" xlink:href="#bg"/></g><g id="ap"><use transform="matrix(0.07469135802469135,0,0,0.07469135802469135,0,0)" xlink:href="#aT"/><use transform="matrix(0.07469135802469135,0,0,0.07469135802469135,5.900617283950616,0)" xlink:href="#bl"/><use transform="matrix(0.07469135802469135,0,0,0.07469135802469135,11.801234567901233,0)" xlink:href="#bg"/><use transform="matrix(0.07469135802469135,0,0,0.07469135802469135,25.245679012345676,0)" xlink:href="#bb"/></g><g id="aq"><use transform="matrix(0.07469135802469135,0,0,0.07469135802469135,0,0)" xlink:href="#ba"/><use transform="matrix(0.07469135802469135,0,0,0.07469135802469135,14.938271604938269,0)" xlink:href="#bM"/></g><g id="ar"><use transform="matrix(0.07469135802469135,0,0,0.07469135802469135,0,0)" xlink:href="#bM"/><use transform="matrix(0.07469135802469135,0,0,0.07469135802469135,7.469135802469134,0)" xlink:href="#bh"/><use transform="matrix(0.07469135802469135,0,0,0.07469135802469135,16.357407407407404,0)" xlink:href="#aV"/><use transform="matrix(0.07469135802469135,0,0,0.07469135802469135,31.295679012345673,0)" xlink:href="#bK"/><use transform="matrix(0.07469135802469135,0,0,0.07469135802469135,53.62839506172838,0)" xlink:href="#aU"/><use transform="matrix(0.07469135802469135,0,0,0.07469135802469135,68.56666666666665,0)" xlink:href="#bg"/></g><g id="as"><use transform="matrix(0.07469135802469135,0,0,0.07469135802469135,0,0)" xlink:href="#aW"/><use transform="matrix(0.07469135802469135,0,0,0.07469135802469135,14.938271604938269,0)" xlink:href="#aU"/><use transform="matrix(0.07469135802469135,0,0,0.07469135802469135,29.876543209876537,0)" xlink:href="#bb"/><use transform="matrix(0.07469135802469135,0,0,0.07469135802469135,37.34567901234567,0)" xlink:href="#bZ"/><use transform="matrix(0.07469135802469135,0,0,0.07469135802469135,56.69074074074073,0)" xlink:href="#ba"/><use transform="matrix(0.07469135802469135,0,0,0.07469135802469135,71.629012345679,0)" xlink:href="#bh"/><use transform="matrix(0.07469135802469135,0,0,0.07469135802469135,80.51728395061727,0)" xlink:href="#bd"/></g><g id="at"><use transform="matrix(0.07469135802469135,0,0,0.07469135802469135,0,0)" xlink:href="#aV"/><use transform="matrix(0.07469135802469135,0,0,0.07469135802469135,14.938271604938269,0)" xlink:href="#aW"/><use transform="matrix(0.07469135802469135,0,0,0.07469135802469135,29.876543209876537,0)" xlink:href="#aV"/><use transform="matrix(0.07469135802469135,0,0,0.07469135802469135,44.81481481481481,0)" xlink:href="#aT"/><use transform="matrix(0.07469135802469135,0,0,0.07469135802469135,50.715432098765426,0)" xlink:href="#bX"/><use transform="matrix(0.07469135802469135,0,0,0.07469135802469135,64.15987654320986,0)" xlink:href="#bg"/><use transform="matrix(0.07469135802469135,0,0,0.07469135802469135,77.6043209876543,0)" xlink:href="#bl"/><use transform="matrix(0.07469135802469135,0,0,0.07469135802469135,83.50493827160491,0)" xlink:href="#bg"/></g><g id="au"><use transform="matrix(0.07469135802469135,0,0,0.07469135802469135,0,0)" xlink:href="#bc"/><use transform="matrix(0.07469135802469135,0,0,0.07469135802469135,14.938271604938269,0)" xlink:href="#aW"/><use transform="matrix(0.07469135802469135,0,0,0.07469135802469135,29.876543209876537,0)" xlink:href="#aT"/><use transform="matrix(0.07469135802469135,0,0,0.07469135802469135,35.777160493827154,0)" xlink:href="#aU"/><use transform="matrix(0.07469135802469135,0,0,0.07469135802469135,50.71543209876541,0)" xlink:href="#aV"/><use transform="matrix(0.07469135802469135,0,0,0.07469135802469135,65.65370370370368,0)" xlink:href="#bh"/><use transform="matrix(0.07469135802469135,0,0,0.07469135802469135,74.54197530864195,0)" xlink:href="#aW"/></g><g id="av"><use transform="matrix(0.07469135802469135,0,0,0.07469135802469135,0,0)" xlink:href="#bp"/><use transform="matrix(0.07469135802469135,0,0,0.07469135802469135,17.925925925925924,0)" xlink:href="#bq"/><use transform="matrix(0.07469135802469135,0,0,0.07469135802469135,32.86419753086419,0)" xlink:href="#br"/><use transform="matrix(0.07469135802469135,0,0,0.07469135802469135,41.75246913580246,0)" xlink:href="#bs"/><use transform="matrix(0.07469135802469135,0,0,0.07469135802469135,56.69074074074072,0)" xlink:href="#bt"/><use transform="matrix(0.07469135802469135,0,0,0.07469135802469135,71.62901234567899,0)" xlink:href="#bu"/><use transform="matrix(0.07469135802469135,0,0,0.07469135802469135,86.56728395061725,0)" xlink:href="#bv"/></g><g id="aw"><use transform="matrix(0.07469135802469135,0,0,0.07469135802469135,0,0)" xlink:href="#aW"/><use transform="matrix(0.07469135802469135,0,0,0.07469135802469135,14.938271604938269,0)" xlink:href="#aU"/><use transform="matrix(0.07469135802469135,0,0,0.07469135802469135,29.876543209876537,0)" xlink:href="#bb"/><use transform="matrix(0.07469135802469135,0,0,0.07469135802469135,37.34567901234567,0)" xlink:href="#bZ"/><use transform="matrix(0.07469135802469135,0,0,0.07469135802469135,56.69074074074073,0)" xlink:href="#ba"/><use transform="matrix(0.07469135802469135,0,0,0.07469135802469135,71.629012345679,0)" xlink:href="#bh"/><use transform="matrix(0.07469135802469135,0,0,0.07469135802469135,80.51728395061727,0)" xlink:href="#bd"/></g><g id="ax"><use transform="matrix(0.07469135802469135,0,0,0.07469135802469135,0,0)" xlink:href="#bm"/><use transform="matrix(0.07469135802469135,0,0,0.07469135802469135,17.925925925925924,0)" xlink:href="#bN"/><use transform="matrix(0.07469135802469135,0,0,0.07469135802469135,32.86419753086419,0)" xlink:href="#bl"/><use transform="matrix(0.07469135802469135,0,0,0.07469135802469135,38.764814814814805,0)" xlink:href="#aW"/><use transform="matrix(0.07469135802469135,0,0,0.07469135802469135,53.70308641975308,0)" xlink:href="#bX"/></g><path d="M205 0l-28-72H64L36 0H1l101-248h38L239 0h-34zm-38-99l-47-123c-12 45-31 82-46 123h93" id="cf"/><g id="ay"><use transform="matrix(0.07469135802469135,0,0,0.07469135802469135,0,0)" xlink:href="#cf"/><use transform="matrix(0.07469135802469135,0,0,0.07469135802469135,17.925925925925924,0)" xlink:href="#aY"/><use transform="matrix(0.07469135802469135,0,0,0.07469135802469135,32.86419753086419,0)" xlink:href="#aY"/></g><path d="M153-248C145-148 188 4 80 4 36 3 13-21 6-62l32-5c4 25 16 42 43 43 27 0 39-20 39-49v-147H72v-28h81" id="cg"/><g id="az"><use transform="matrix(0.07469135802469135,0,0,0.07469135802469135,0,0)" xlink:href="#cg"/><use transform="matrix(0.07469135802469135,0,0,0.07469135802469135,13.444444444444443,0)" xlink:href="#ba"/><use transform="matrix(0.07469135802469135,0,0,0.07469135802469135,28.38271604938271,0)" xlink:href="#bl"/><use transform="matrix(0.07469135802469135,0,0,0.07469135802469135,34.28333333333333,0)" xlink:href="#aW"/></g><g id="aA"><use transform="matrix(0.07469135802469135,0,0,0.07469135802469135,0,0)" xlink:href="#cc"/><use transform="matrix(0.07469135802469135,0,0,0.07469135802469135,24.797530864197526,0)" xlink:href="#aU"/><use transform="matrix(0.07469135802469135,0,0,0.07469135802469135,39.735802469135784,0)" xlink:href="#aV"/><use transform="matrix(0.07469135802469135,0,0,0.07469135802469135,54.674074074074056,0)" xlink:href="#bb"/><use transform="matrix(0.07469135802469135,0,0,0.07469135802469135,62.14320987654319,0)" xlink:href="#bN"/><use transform="matrix(0.07469135802469135,0,0,0.07469135802469135,77.08148148148148,0)" xlink:href="#aU"/><use transform="matrix(0.07469135802469135,0,0,0.07469135802469135,92.01975308641973,0)" xlink:href="#bh"/></g><g id="aB"><use transform="matrix(0.07469135802469135,0,0,0.07469135802469135,0,0)" xlink:href="#bb"/><use transform="matrix(0.07469135802469135,0,0,0.07469135802469135,7.469135802469134,0)" xlink:href="#bh"/><use transform="matrix(0.07469135802469135,0,0,0.07469135802469135,16.357407407407404,0)" xlink:href="#aV"/><use transform="matrix(0.07469135802469135,0,0,0.07469135802469135,31.295679012345673,0)" xlink:href="#bl"/><use transform="matrix(0.07469135802469135,0,0,0.07469135802469135,37.19629629629629,0)" xlink:href="#bb"/></g><g id="aC"><use transform="matrix(0.07469135802469135,0,0,0.07469135802469135,0,0)" xlink:href="#bP"/><use transform="matrix(0.07469135802469135,0,0,0.07469135802469135,14.938271604938269,0)" xlink:href="#aV"/><use transform="matrix(0.07469135802469135,0,0,0.07469135802469135,29.876543209876537,0)" xlink:href="#bb"/><use transform="matrix(0.07469135802469135,0,0,0.07469135802469135,37.34567901234567,0)" xlink:href="#aV"/></g><g id="aD"><use transform="matrix(0.07469135802469135,0,0,0.07469135802469135,0,0)" xlink:href="#cc"/><use transform="matrix(0.07469135802469135,0,0,0.07469135802469135,25.320370370370366,0)" xlink:href="#bl"/><use transform="matrix(0.07469135802469135,0,0,0.07469135802469135,31.220987654320982,0)" xlink:href="#bP"/><use transform="matrix(0.07469135802469135,0,0,0.07469135802469135,46.15925925925925,0)" xlink:href="#aU"/></g><g id="aE"><use transform="matrix(0.07469135802469135,0,0,0.07469135802469135,0,0)" xlink:href="#bI"/><use transform="matrix(0.07469135802469135,0,0,0.07469135802469135,15.386419753086416,0)" xlink:href="#bh"/><use transform="matrix(0.07469135802469135,0,0,0.07469135802469135,24.274691358024686,0)" xlink:href="#aV"/><use transform="matrix(0.07469135802469135,0,0,0.07469135802469135,39.212962962962955,0)" xlink:href="#bl"/><use transform="matrix(0.07469135802469135,0,0,0.07469135802469135,45.11358024691357,0)" xlink:href="#bb"/></g><g id="aF"><use transform="matrix(0.07469135802469135,0,0,0.07469135802469135,0,0)" xlink:href="#bi"/><use transform="matrix(0.07469135802469135,0,0,0.07469135802469135,19.34506172839506,0)" xlink:href="#aV"/><use transform="matrix(0.07469135802469135,0,0,0.07469135802469135,34.28333333333333,0)" xlink:href="#bb"/><use transform="matrix(0.07469135802469135,0,0,0.07469135802469135,41.752469135802464,0)" xlink:href="#aV"/></g><path d="M234-2c-28 10-62 0-77-18C117 19 8 12 13-65c3-43 29-61 60-76-25-40-17-114 47-108 35 3 59 15 59 50 0 44-40 53-71 69 14 26 32 50 51 72 14-21 24-43 30-72l26 8c-9 33-21 57-38 82 13 13 33 22 57 15v23zM97-151c25-10 52-18 56-48-1-18-13-29-33-29-42 0-39 50-23 77zM42-66c-3 51 71 58 98 28-20-24-41-51-56-80-23 10-40 24-42 52" id="ch"/><use transform="matrix(0.07469135802469135,0,0,0.07469135802469135,0,0)" xlink:href="#ch" id="aG"/><g id="aH"><use transform="matrix(0.07469135802469135,0,0,0.07469135802469135,0,0)" xlink:href="#bJ"/><use transform="matrix(0.07469135802469135,0,0,0.07469135802469135,16.357407407407404,0)" xlink:href="#bl"/><use transform="matrix(0.07469135802469135,0,0,0.07469135802469135,22.25802469135802,0)" xlink:href="#aT"/><use transform="matrix(0.07469135802469135,0,0,0.07469135802469135,28.158641975308637,0)" xlink:href="#bb"/><use transform="matrix(0.07469135802469135,0,0,0.07469135802469135,35.62777777777777,0)" xlink:href="#aU"/><use transform="matrix(0.07469135802469135,0,0,0.07469135802469135,50.56604938271604,0)" xlink:href="#bh"/></g><g id="aI"><use transform="matrix(0.07469135802469135,0,0,0.07469135802469135,0,0)" xlink:href="#aS"/><use transform="matrix(0.07469135802469135,0,0,0.07469135802469135,19.34506172839506,0)" xlink:href="#bf"/><use transform="matrix(0.07469135802469135,0,0,0.07469135802469135,34.28333333333333,0)" xlink:href="#aT"/><use transform="matrix(0.07469135802469135,0,0,0.07469135802469135,40.18395061728394,0)" xlink:href="#bb"/><use transform="matrix(0.07469135802469135,0,0,0.07469135802469135,47.65308641975308,0)" xlink:href="#bl"/><use transform="matrix(0.07469135802469135,0,0,0.07469135802469135,53.5537037037037,0)" xlink:href="#bQ"/><use transform="matrix(0.07469135802469135,0,0,0.07469135802469135,66.99814814814815,0)" xlink:href="#aV"/><use transform="matrix(0.07469135802469135,0,0,0.07469135802469135,81.93641975308641,0)" xlink:href="#bh"/></g><g id="aJ"><use transform="matrix(0.07469135802469135,0,0,0.07469135802469135,0,0)" xlink:href="#ce"/><use transform="matrix(0.07469135802469135,0,0,0.07469135802469135,14.938271604938269,0)" xlink:href="#ba"/><use transform="matrix(0.07469135802469135,0,0,0.07469135802469135,29.876543209876537,0)" xlink:href="#ba"/><use transform="matrix(0.07469135802469135,0,0,0.07469135802469135,44.81481481481481,0)" xlink:href="#bd"/><use transform="matrix(0.07469135802469135,0,0,0.07469135802469135,58.25925925925925,0)" xlink:href="#bf"/><use transform="matrix(0.07469135802469135,0,0,0.07469135802469135,73.19753086419752,0)" xlink:href="#aY"/></g><g id="aK"><use transform="matrix(0.07469135802469135,0,0,0.07469135802469135,0,0)" xlink:href="#bI"/><use transform="matrix(0.07469135802469135,0,0,0.07469135802469135,13.36975308641975,0)" xlink:href="#aV"/><use transform="matrix(0.07469135802469135,0,0,0.07469135802469135,28.30802469135802,0)" xlink:href="#bc"/><use transform="matrix(0.07469135802469135,0,0,0.07469135802469135,43.2462962962963,0)" xlink:href="#aT"/><use transform="matrix(0.07469135802469135,0,0,0.07469135802469135,49.14691358024692,0)" xlink:href="#aU"/></g><g id="aL"><use transform="matrix(0.07469135802469135,0,0,0.07469135802469135,0,0)" xlink:href="#bI"/><use transform="matrix(0.07469135802469135,0,0,0.07469135802469135,15.386419753086416,0)" xlink:href="#bh"/><use transform="matrix(0.07469135802469135,0,0,0.07469135802469135,24.274691358024686,0)" xlink:href="#aV"/><use transform="matrix(0.07469135802469135,0,0,0.07469135802469135,39.212962962962955,0)" xlink:href="#bl"/><use transform="matrix(0.07469135802469135,0,0,0.07469135802469135,45.11358024691357,0)" xlink:href="#bb"/><use transform="matrix(0.07469135802469135,0,0,0.07469135802469135,52.58271604938271,0)" xlink:href="#bg"/></g><path d="M240 0l2-218c-23 76-54 145-80 218h-23L58-218 59 0H30v-248h44l77 211c21-75 51-140 76-211h43V0h-30" id="ci"/><g id="aM"><use transform="matrix(0.07469135802469135,0,0,0.07469135802469135,0,0)" xlink:href="#ci"/><use transform="matrix(0.07469135802469135,0,0,0.07469135802469135,22.33271604938271,0)" xlink:href="#aU"/><use transform="matrix(0.07469135802469135,0,0,0.07469135802469135,37.270987654320976,0)" xlink:href="#bh"/><use transform="matrix(0.07469135802469135,0,0,0.07469135802469135,46.159259259259244,0)" xlink:href="#bk"/><use transform="matrix(0.07469135802469135,0,0,0.07469135802469135,61.09753086419751,0)" xlink:href="#aU"/></g><g id="aN"><use transform="matrix(0.07469135802469135,0,0,0.07469135802469135,0,0)" xlink:href="#bm"/><use transform="matrix(0.07469135802469135,0,0,0.07469135802469135,17.925925925925924,0)" xlink:href="#aU"/><use transform="matrix(0.07469135802469135,0,0,0.07469135802469135,32.86419753086419,0)" xlink:href="#aV"/><use transform="matrix(0.07469135802469135,0,0,0.07469135802469135,47.802469135802454,0)" xlink:href="#bg"/><use transform="matrix(0.07469135802469135,0,0,0.07469135802469135,61.2469135802469,0)" xlink:href="#ba"/><use transform="matrix(0.07469135802469135,0,0,0.07469135802469135,76.18518518518516,0)" xlink:href="#aW"/></g><g id="aO"><use transform="matrix(0.07469135802469135,0,0,0.07469135802469135,0,0)" xlink:href="#bi"/><use transform="matrix(0.07469135802469135,0,0,0.07469135802469135,19.34506172839506,0)" xlink:href="#aV"/><use transform="matrix(0.07469135802469135,0,0,0.07469135802469135,34.28333333333333,0)" xlink:href="#bb"/><use transform="matrix(0.07469135802469135,0,0,0.07469135802469135,41.752469135802464,0)" xlink:href="#aV"/><use transform="matrix(0.07469135802469135,0,0,0.07469135802469135,56.690740740740736,0)" xlink:href="#bM"/><use transform="matrix(0.07469135802469135,0,0,0.07469135802469135,64.15987654320988,0)" xlink:href="#bh"/><use transform="matrix(0.07469135802469135,0,0,0.07469135802469135,73.04814814814814,0)" xlink:href="#aV"/><use transform="matrix(0.07469135802469135,0,0,0.07469135802469135,87.98641975308641,0)" xlink:href="#bK"/><use transform="matrix(0.07469135802469135,0,0,0.07469135802469135,110.31913580246912,0)" xlink:href="#aU"/><use transform="matrix(0.07469135802469135,0,0,0.07469135802469135,125.25740740740738,0)" xlink:href="#bg"/></g><g id="aP"><use transform="matrix(0.07469135802469135,0,0,0.07469135802469135,0,0)" xlink:href="#cf"/><use transform="matrix(0.07469135802469135,0,0,0.07469135802469135,17.925925925925924,0)" xlink:href="#bP"/><use transform="matrix(0.07469135802469135,0,0,0.07469135802469135,32.86419753086419,0)" xlink:href="#bP"/></g><path d="M-5 72V49h209v23H-5" id="cj"/><g id="aQ"><use transform="matrix(0.07469135802469135,0,0,0.07469135802469135,0,0)" xlink:href="#bm"/><use transform="matrix(0.07469135802469135,0,0,0.07469135802469135,17.925925925925924,0)" xlink:href="#bl"/><use transform="matrix(0.07469135802469135,0,0,0.07469135802469135,23.82654320987654,0)" xlink:href="#bb"/><use transform="matrix(0.07469135802469135,0,0,0.07469135802469135,31.295679012345673,0)" xlink:href="#aU"/><use transform="matrix(0.07469135802469135,0,0,0.07469135802469135,46.23395061728394,0)" xlink:href="#cj"/><use transform="matrix(0.07469135802469135,0,0,0.07469135802469135,61.1722222222222,0)" xlink:href="#bm"/><use transform="matrix(0.07469135802469135,0,0,0.07469135802469135,79.09814814814814,0)" xlink:href="#aU"/><use transform="matrix(0.07469135802469135,0,0,0.07469135802469135,94.03641975308639,0)" xlink:href="#aV"/><use transform="matrix(0.07469135802469135,0,0,0.07469135802469135,108.97469135802466,0)" xlink:href="#bg"/><use transform="matrix(0.07469135802469135,0,0,0.07469135802469135,122.4191358024691,0)" xlink:href="#ba"/><use transform="matrix(0.07469135802469135,0,0,0.07469135802469135,137.35740740740738,0)" xlink:href="#aW"/></g><g id="aR"><use transform="matrix(0.07469135802469135,0,0,0.07469135802469135,0,0)" xlink:href="#bM"/><use transform="matrix(0.07469135802469135,0,0,0.07469135802469135,7.469135802469134,0)" xlink:href="#aU"/><use transform="matrix(0.07469135802469135,0,0,0.07469135802469135,22.407407407407405,0)" xlink:href="#aV"/><use transform="matrix(0.07469135802469135,0,0,0.07469135802469135,37.34567901234567,0)" xlink:href="#bb"/><use transform="matrix(0.07469135802469135,0,0,0.07469135802469135,44.814814814814795,0)" xlink:href="#bf"/><use transform="matrix(0.07469135802469135,0,0,0.07469135802469135,59.753086419753075,0)" xlink:href="#bh"/><use transform="matrix(0.07469135802469135,0,0,0.07469135802469135,68.64135802469134,0)" xlink:href="#aU"/></g></defs></g></svg>